<svg id="Layer_1" data-name="Layer 1" xmlns="http://www.w3.org/2000/svg" viewBox="0 0 407.27 600.21"><defs><style>.cls-1{fill:#d8b6d6;}</style></defs><title>cardAdaptogen</title><path d="M414.8,61.06V79.57h0l-15.2-14.41c-18.69-11-27.32-30.83-47-41.16-5.84-3.06-16-8.24-22-10.37-1.39-.49-3-.19-4.14-1.05l3.64-1c9.64.9,18.69-.87,28.08,2,16.49,5.05,36,29.29,49.51,41C409.15,56,414.8,59.52,414.8,61.06Z" transform="translate(-8.6 -10.06)"/><path d="M414.33,32.7v8a9.61,9.61,0,0,1-2.88-.2c-6.37-1.22-16.83-13.65-22.55-18.07-3.84-3-8.75-5.93-12.89-8.62-1.52-1-3.75-.8-4-3,2.77,0,6.14-.68,8.77-.71C392.33,10,401,14,408.14,22.66,409.41,24.22,414.33,31.18,414.33,32.7Z" transform="translate(-8.6 -10.06)"/><path d="M413.75,540.57c-1.32,2.57-10.15,6.87-13.07,8-9.86,3.83-20.46,5.61-30.43,8.66-10.14,3.1-28,14.14-36.43,20.72-11.52,9-13.87,14.77-29.1,20.45-13,4.85-34,11.78-47.66,9.51-20.94-3.48-40.76-13.59-62.45-12.59-15.18.71-26.52,5.53-40.36,10.07-29.41,9.64-44.91-9.52-70.94-15C66.75,587,59.66,588,45.45,577,33.08,567.46,29.52,556.47,20,546.17c-3.32-3.58-7.89-5.84-10.92-9.61v-18.5a85.24,85.24,0,0,1,28.5,23.56c6,7.53,8.91,14.3,16.89,20.78,14.91,12.09,53.6,21.66,73.17,26,27.19,6.07,43.28-7.26,68.84-7.76,32.81-.64,50.26,17.79,87.19,7.56,24.18-6.7,31-18,49.47-31,20.23-14.34,37.75-12.72,59.7-20.27,7.66-2.65,13.73-7,21.26-9.72C414.44,530.4,415.19,537.76,413.75,540.57Z" transform="translate(-8.6 -10.06)"/><path d="M414.79,551.88c-1.18,4.38.95,16-3.05,18.74-4.06,1.46-7.88,3.64-12,4.88-6.91,2.07-14.61,2.55-21.49,4.47-20.45,5.73-26.65,27.81-49.62,29.52-6.89.51-14.44,0-21.32.15-2.29.07-4.28,1.48-6.49-.85,1.42-.32,2.69-.16,4.14-.58,5.81-1.65,18.15-9.19,23.16-12.91,14.7-10.94,25.21-23,43.6-28.92,12.55-4,23.32-5.13,35.62-11C408.43,554.87,414.12,551.26,414.79,551.88Z" transform="translate(-8.6 -10.06)"/><path d="M414.82,581.16c-.58,4.22.1,7.73-2.64,11.39-3.78,5.05-18.9,9.69-25.24,12.3-2.89,1.18-7.14,3.91-10,4.54-6.39,1.43-13.85-.16-20.35.88L355,608.36c10-8.76,20.42-16,33.62-19.77,4.7-1.34,9.65-1.78,14.35-3.11,4.22-1.19,7.76-3.55,11.88-4.34Z" transform="translate(-8.6 -10.06)"/><path d="M220.73,609H169.19l0,0c-.07-1.15-.11-.79.72-.91,7.49-1.08,14.59-3.25,22.33-3.67,10.07-.54,19.54,1.44,29.22,3.66C221.6,608.24,220.83,609,220.73,609Z" transform="translate(-8.6 -10.06)"/><path d="M414.34,441.93c-.32,2.26-6.07,6.94-7.86,8.89-16,17.6-26.33,33.75-51.23,40.31-18.66,4.92-36.58,6.38-54.78,14-18.81,7.91-32.87,22.3-54.56,23.85-12.43.89-25.45-4.45-38.48-4.1-27.61.75-42.86,11.58-73,4.9-12-2.66-16.06-7.29-24.09-15.2a148.24,148.24,0,0,1-11.92-13.24c-14.46-17.39-30.92-21.1-50.8-29.75C30.21,464.07,30.15,459,19.74,445.85c-1.66-2.12-10.65-11-10.65-12.62V412.88A66.22,66.22,0,0,1,18.79,423c6.62,8,12.44,18.31,19.29,25.78,12,13.09,34,18,50.19,25.3,21.17,9.55,31.48,32.22,55.49,40.32,23.68,8,39.63.87,62.72-1.38,14.18-1.38,25.56,1.53,39.76-1.51,19.82-4.24,36.1-16.31,55.38-22.6,23.61-7.71,50.74-3.52,70.67-20.24,9.66-8.08,15.5-18.47,23.73-27.45,4.72-5.13,11.74-11.72,16.92-16.62.24-.22,1.5-1.29,1.86-.95a11.44,11.44,0,0,0-.52,2.24C414.08,430.93,415,437,414.34,441.93Z" transform="translate(-8.6 -10.06)"/><path d="M414.33,457.69v19.89c-8.44,11.19-18,20.77-30.56,27.74-21.15,11.72-46.59,10.15-68.58,20-20.61,9.19-26.82,25.09-52.18,28-19.65,2.23-33.42-5.2-52.26-6.39-20.81-1.32-37.58,7-57.48,8.67-29.44,2.44-59-7.83-75.79-31.76-7.12-10.17-10.61-15.55-22-22.27-13.82-8.17-31.56-11-41.64-23.47-.72-.91-4.76-6.76-4.76-7.31V447.63L24.31,467C36,479.87,47.6,481.19,62.63,487.78c24.57,10.76,31.57,33.79,55.72,46.05,36,18.24,62-1.87,97.64.67,9,.65,17.85,3.84,27.28,4,23.93.29,36.4-12.1,55.29-22.33,16.75-9.07,35.8-10.15,54.1-14.24,29.43-6.57,39.28-23.62,59-42.39A7.09,7.09,0,0,1,414.33,457.69Z" transform="translate(-8.6 -10.06)"/><path d="M413.62,514.38c-6,5.28-12.22,9.71-19.93,12.37-27.3,9.42-50.3,8.47-74.59,27.43-9.84,7.67-14.9,17.57-27.34,21.7-11.22,3.71-27.45,6.9-39.19,5.71-18.08-1.85-32.86-10.89-51.31-11-16-.07-29.82,5-45,8.38-17.46,3.9-31.91.28-48.74-4.59-14.38-4.16-39.53-13.54-49-24.6-11.92-13.9-12.38-24.14-30.75-34.42-4.17-2.34-13.9-5-16.22-8.18a23.48,23.48,0,0,1-1.68-3.66c-.1-.22-.78-.13-.78-.13V488.33c2.1.46,2.74,2.28,4.32,3.39,8.29,5.84,18.51,8.07,27.18,13.15,13.77,8.07,17.23,14.08,26.26,25.94,16.86,22.12,44.35,33.34,72.63,34.35,22.5.79,46.15-10.1,68.9-9.17,27.69,1.16,44.21,14.78,73.25,2.83,14.71-6.06,23.39-17.76,37.2-24.56,20.44-10.09,44.47-9.41,65.12-19.62,9.51-4.69,17.24-12.14,25.67-18.27.74-.53,4.72-3.37,5.2-3C413.5,500.22,415.25,507.49,413.62,514.38Z" transform="translate(-8.6 -10.06)"/><path d="M33.08,610c-5.77-1.06-15.85-1.65-20.42-5.48-2.58-2.15-3.67-13-3.57-16.47.78-.83,2.92,3,3.34,3.43,5.39,5.84,13.22,9,18.21,14.7C31.46,607.06,33.93,608.41,33.08,610Z" transform="translate(-8.6 -10.06)"/><path d="M99.37,607.68l-1.35.09-.33,1.32c-5.86,0-11.73-.19-17.58-.06-7.16.16-16.7,1.71-23.5-.67C41.59,603.08,21.73,592.19,13,579c-.56-.85-3.9-6.39-3.9-6.77V551l0,0c.94-1,6.75,6.16,7.33,6.89,4.92,6.27,8.31,13.09,13.8,19.17,17.58,19.48,44.61,20.75,68.32,29.81Z" transform="translate(-8.6 -10.06)"/><path d="M404.4,259.57c-7.8-9.43-15.6-23-26.6-29.26-13.65-7.72-30.65-10.73-42.06-22.16-13.89-13.9-15.85-25.05-37.75-31.34s-58.38-8.07-67.55-32.84c-1.88-5.05-.65-11.52,6-8,7.12,3.75,14,12.18,20.76,17,21.33,15.45,54.57,11.27,71.94,31.35,9.47,11,10.67,18,25.24,25.09,17.66,8.64,29.82,11.89,43.39,27.27,5.39,6.13,9.79,16.21,16.3,20.34.13.09,1,2.19,1.67.14.36-1.12-.25-7-.45-8.54C413.7,237,403.08,224.05,394,216.57s-19.76-8.68-29.61-14c-18.4-10-21.83-33.25-44.26-41.09-18-6.27-40.58-8.55-55.36-20.78-7.86-6.5-14.8-16.82-24.2-21.52-2.31-1.15-7.5-2-8.45-4.22-.72-1.67-.39-5.87,1.63-6.41.46-.13,4.52-.55,5.13-.55,16.6.22,26,18.93,36.82,28.12,13.65,11.61,39.64,12.2,55.74,20.89,13.83,7.47,19.06,18.31,29.06,28.73,10.55,11,23.53,13.92,35.37,22.66,2.9,2.14,5.05,5,7.63,7.29,3.22,2.85,6.59,5.55,9.82,8.38l1.1.08c1.58-5.77-.91-11.44-4.73-15.78-10.75-12.23-26.94-19.19-37.53-31.09-10.47-11.75-15-20.66-30.4-28.35-14.63-7.34-32.58-9-46.42-16.59-12.16-6.66-17.18-19.38-28.22-26.78-10.36-7-18.81-9-31.08-10.33-4.31-.48-6.32-5.51-2.58-7.51,10.42-5.58,36.74,5,45.34,12.07,8.23,6.72,11.69,16.93,21,22.78,11.26,7.11,25.34,8.76,37.38,13.87,22.64,9.59,33.76,25.36,50.66,40.87,5.48,5,12,9.71,17.59,14.61,2.82,2.45,5.3,5.3,8.08,7.79l.95-.46v-9.15c0-8.49-11.59-17.94-17.35-24-15.14-15.94-29-30.78-49.92-40.19-10.94-4.92-23.22-5.27-34.07-12-7-4.37-10.47-10.53-15.76-16.38-17.35-19.22-34.12-21.79-59.39-23.78-4.18-.33-8.39-.86-6.79-6.07.55-1.77,3.69-2.82,5.42-3,18.72-2.19,52.64,8.27,66.47,21,6.42,5.89,9.66,14.14,17,19.32,10.66,7.54,23,8.79,34.55,14.3,17.06,8.14,31,20.46,44.19,33.37,4,3.9,10.64,12.23,14.7,15.12.73.52,1.42.68,2.16,1.13.71-7,.34-12-3.66-18-8.15-12.2-27.29-31.26-40.28-38.51-11-6.13-24.37-9.16-35.13-15.58-12.67-7.54-18.94-19.85-31.9-27.36-19.92-11.52-57.52-19.68-80.43-16.67-9.94,1.31-19.1,4.92-29.5,5.45-17.73.91-34.74-4-52.27-5-38.06-2.37-61.73,14.8-90,35.93-13,9.71-20.46,20.34-30.07,32.79-3.85,5-12,12.73-12.75,18.81-.39,3.15.12,6.51.05,9.63,0,1.61-1.34,3.48.2,4.79,2.15-4.39,7.14-6.65,10.69-9.83,11.07-9.89,15.35-26.16,25.87-36.84C54.51,100.2,67.93,94.34,78,88.5c5.45-3.16,10.5-7.82,15.85-11.26,18.22-11.74,44-15.45,65.68-14.1,4.84.3,8.5,2,12.87,2.72,4.93.79,23.46.46,25.28,6.32,1.72,5.52-8.64,2.14-11.09,2-4.62-.35-9.63.34-14.23,0-6.38-.49-13.37-2.77-20-3.2-8.75-.56-27.5,3.12-35.85,6.17-16.63,6.07-27.26,18.62-42.83,26.44-6.33,3.18-12.84,5.11-18.46,9.67C41,124.8,37.63,144,23.89,156.23,20.79,159,10.26,165.62,9.63,169L9.57,169c-.75,4.07.56,10.1,0,14.4,4-3.22,8.93-5.16,13.05-8.24,19.15-14.3,22-37.1,40.15-51.43,6.95-5.48,16.21-7.55,23.72-11.93,9.94-5.78,18.1-15.29,29.18-21.3C136.18,79.34,154.32,79.61,177,81.4c7.42.59,19.36.87,25,5.69,2.88,2.48,3.14,7.25-.74,8.94-6.5-1.28-12.69-3.92-19.14-5.35-22-4.91-44.36-3-63.71,8.35-11,6.46-19.11,15.81-30.13,21.77-7.93,4.28-13.71,6.34-20.75,12.48-16.09,14.06-19.64,33.48-35.62,48-5.38,4.91-19.21,12.09-21.62,18.06-1.51,3.76-.06,7.89-1.09,11.76l.6,1c5.63-.86,9.09-5.39,13.33-8.66C35,194.31,45.42,187.78,53.67,174.8c5-7.84,6.58-16.4,12.92-24.14,8.83-10.79,17-12.46,28.34-18.9,7.18-4.09,11.7-9.35,18-14.23,17.85-13.88,48.76-22.08,70.9-14.77a158.61,158.61,0,0,1,14.79,5.88c6.75,3.3,8.08,14.17-1.7,10.79-3.82-1.32-7.95-4.29-11.85-6-15.88-6.82-30.23-4.42-46.14.73-16.4,5.3-24.4,15.4-38,24.27-13.25,8.69-23.64,11.22-32.06,25.84-9.85,17.1-10.57,21.36-26.77,34.58-8.17,6.68-30.38,21.31-32,31.36-.41,2.59,1,5.68.45,8.43,1.9.35,3.1-1.28,4.28-2.5,3.62-3.71,6.57-8.75,10.2-12.59,9.78-10.37,23.26-17.39,35.17-25.13,6.29-4.09,8.72-5.28,12-12.19,4.34-9,6.14-16.67,13.83-24.18,9-8.79,19.54-11,29.34-17.48,4.16-2.71,8-6.53,12-9.43,13.39-9.51,32.92-15.45,49.35-10.53,6.14,1.84,22.39,9.84,25.87,14.87,2.32,3.36,1.44,7.23-3.19,6.73-12.3-7.12-22.12-13.16-37.16-12.24-20.63,1.26-29.1,11-44.56,21.13-10.85,7.11-21.2,10.25-29.53,21-4.06,5.24-5.59,10.95-8.91,16.11-7.47,11.62-22.8,17-34.08,24.35-11.88,7.79-22.39,21-30.35,32.52-1.62,2.34-5.79,8.79-5.79,11.35v10.74c2-.34,3.9-1.95,5.45-3.21,13.17-10.66,19.5-27.27,32.55-39.08S79,212,89.13,198.45c4.45-5.93,6.52-10.65,12.62-15.74,4.56-3.8,9.61-5.82,14.41-9,8.77-5.77,16-14.05,25.18-19.19,19.56-10.89,37.57-9.43,55.39,3.54,2.45,1.8,10.72,7.81,6,10.75-3.64,2.25-11.91-4.52-15.54-6.15-27.74-12.54-46.88,4.71-67.34,19.65C108,191,99.39,202.76,87.74,211.76c-14.57,11.23-29,15.81-41.55,30C38,251,32.43,262,24.31,271c-3.4,3.75-12.91,10.64-14.6,14.3-1.8,3.88.35,11.65-1.06,16.12a8.74,8.74,0,0,0,2.88-.2c2.25-.69,9.12-10.08,11.37-12.38,3.83-3.93,8.4-6.55,12.37-10,8.09-7.12,10.93-16.72,17.18-25.08,15-20.08,36.38-26,54.77-40.55,18.23-14.37,35.6-42.25,62.24-41.59,7.67.19,20.5,4.71,26.81,8.95,3.09,2.07,8.16,6,7.53,9.91-.91,5.5-7.5-.18-10.18-1.41-13.53-6.17-28.51-9.25-42.13-1.8-14,7.64-19.58,16.53-30.48,26.44C104.57,228.59,81.25,236,65.4,252.49c-7.68,8-11.17,17.58-17.83,25.83-7.43,9.16-18,15.29-25.87,24-3.55,3.93-12.14,15.91-12.61,20.79-.83,8.92.08,20.09.05,29.3C9.09,363.69,8,377.91,9.12,389c1.23,11.77,12.3,18.6,18.72,27.25,4.43,6,7.39,12.87,11.77,18.86,8.42,11.51,16.72,17.14,30.33,22s31,10.3,42.28,19.66c15.06,12.47,23,26.57,44.57,31.19,19.09,4.08,29.91-1.81,47.83-3.05,10.87-.75,22.82,1,33.59-.59,22-3.32,39.56-17.26,60.81-23.77,16.09-4.92,30.48-5.42,46.63-8.15,21.72-3.69,32.71-24.11,45.66-38.81,5.84-6.63,16.94-14.76,20.87-21.52,5.2-9,.86-19.67,3.59-29.23-2.67.33-1.69,1.72-2.61,3.65-8.41,17.66-25,23.66-35.7,38.35-5.13,7.06-9,15.13-15.13,21.55-15.24,15.95-45.18,15.84-65.7,21.81-16.67,4.85-31.45,14.05-48,19.2-28.71,8.94-66.87,12.57-94.58-.6-17.71-8.43-28-23.78-46.49-30.7-21.24-7.94-40.22-9.77-54.47-29.42-6.2-8.54-8.41-19-16-26.71-9.32-9.58-15.26-13-19.83-26.64-12.88-38.46,20.85-70.64,51.21-89.45C84,274.32,100,265.28,115.57,256c6.57-3.93,13.81-6.77,19.68-11.69,6.12-5.13,10.47-12.22,17.18-16.85,9.49-6.54,23.59-10.74,34.83-6.71,3.76,1.35,11.16,4,6.66,8.69-3.69.58-7.38-.78-11.19-.7-5.93.11-14.16,2.21-19.67,4.38-12,4.71-18.94,15.44-29.61,22.72C95.74,281.51,21.89,303.75,24.29,359.3c.68,15.73,10,25.24,20.93,35.19,8.8,8,10.85,18.87,17.94,28.46,16.74,22.58,42,17,63.44,30.84,7.53,4.83,13.33,11.79,20.12,16.3,23.48,15.52,47.66,17.7,75.44,14.24,31.26-3.89,56.34-21.95,87.18-28.57,11.4-2.45,22.62-3.84,33.73-7.78,6.88-2.45,10-3.82,14.45-9.41,5-6.35,9-13.48,14.07-19.84,8.05-10.08,18.8-17.68,25.54-28.45s7.94-17.42,7.72-30.11c0-2.59-2.06-8.24,2.15-8.88,4.64-.7,2.83,2.2,3.65,3.54.13.22.93.2,1.22.87.81,1.89-.47,3.25,2.95,3.35.17-7.21,0-14.42-1.69-21.47-6.64-8.86-12.88-18.51-19.77-27.16-7.27-9.1-13.76-13.62-23.71-19.69-8.95-5.45-22.95-14.34-32.16-18.43-13.59-6-29.37-7.82-43.28-15-11.22-5.83-18.91-15.6-30.45-21-8-3.74-15.64-4.83-23.78-7.27-2-.62-3.89-1.21-4.51-3.43-.87-3.05.32-3.29,3-4,10.27-2.67,22.81,2.52,31.87,7,10.84,5.38,18.83,15.72,30.46,21.89,12.76,6.79,26,8.49,38.34,13.85,5.4,2.36,10.92,6.36,16.29,9,20.87,10.4,34.23,14.24,48,34.26,1.7,2.46,6.73,12.16,9,12.85,1.16.34,2.23.43,2.4-.95-.1-4.85.4-9.81,0-14.65C414,293.68,400,281,392.29,273.05,379.64,260,369,247.13,351.81,239.3c-10-4.56-20.48-8.2-30.06-13.59-9.39-5.28-15.13-16.13-23.56-22.59s-23.68-10.81-34.25-12.3c-8.53-1.19-24-.81-29.83-7.86-1.94-2.36-5.65-10.22-2.33-12.25s12.6,4.44,16,6c19.32,8.73,44.51,5.31,60.61,20.77,4.31,4.15,7,9.67,11.21,13.91,11.72,11.78,23.94,15,38.41,21.55,19.65,8.88,26.24,23.28,40.92,36.53,2.06,1.87,11.28,9.95,13.08,10.73,1.15.49,2.61,0,3.79.69-1-2.12,0-3.81.05-5.71C415.85,270.3,407.52,263.36,404.4,259.57ZM211.93,69.26c.22-2.51.64-3.92,3.58-3.92,4.17,0,5.57,2.58,5.94,6.22.59,5.81.17,11.61,0,17.35-.95,28.52,2,57.39.52,86-.14,2.89-1.18,14.13-2.29,16.08s-4.16,2.87-5.69,1.4h0c-1.6-1.54-.93-7.48-1-9.74-1.34-24.08-.32-48.52-.48-72.7C212.37,96.66,210.79,82.56,211.93,69.26Zm-26.59,139a56,56,0,0,0-8.32-1.59c-29-2.22-32.16,14.8-51.38,28.72-6,4.34-12.8,7.5-18.84,11.6-4.64,3.15-8.85,7.06-13.47,10.34-5.51,3.93-15.57,11.55-21.29,14.27a5.82,5.82,0,0,1-2.39.87,13,13,0,0,1-2.86-1.33c-2.46-3.46,7.09-11.32,9.54-13.26,12.34-9.83,26.79-17.62,40.28-25.71,10.77-6.46,15.85-15.78,24.77-23.7,5.54-4.91,15.91-11.8,23.42-12.66h0c7-.8,17.16.82,23.55,3.6,2.52,1.09,10.48,5.82,11.72,7.91s.38,4.66-2.15,4.86C195.75,212.39,188.3,209,185.34,208.27ZM159.7,249c.68-3.44,15.4-6.18,18.75-6.18,1.09,0,8.62,1.06,9.17,1.49h0c1.47,1.18-.17,4-1.61,4.85-2.78,1.65-9.92.26-13.7.53-4.27.3-8.37,1.77-12.59,2.29A29.62,29.62,0,0,1,159.7,249Zm129.71,16c29.6,7.82,54.91,24.81,81.17,39.37C395.2,323.72,405,361.69,383,386.55c-5.29,6-12.12,10-18,15.09-10.76,9.24-16,22.07-27.58,30.15-13.77,9.6-29.46,8.3-45,12.49-21.17,5.7-39.52,17.65-60.92,22.3-20.12,4.37-44.37,4.57-63.37-3.94-15.88-7.13-27.82-20.46-44.57-26.14-14.77-5-27.43-6.23-40-16.35-12.23-9.82-15.63-20.51-24.3-32.39-6.52-8.95-14.09-15.44-17.06-26.57-3-11.29-1.9-19.36,4.33-29.23,16-25.36,42.31-41,69.08-54.23,15.69-7.79,42.37-18.52,60.11-17.14,5.72.45,7.81,3.76,3.37,7.81a193.28,193.28,0,0,0-74.24,22.29C94,296.37,86.57,301.15,77.81,309.36v0c-9.17,8.6-24.17,24.19-26.4,36.55-3,16.69,8,26.76,16.6,39.27C75,395.38,79.44,405,89.36,413.12c13.27,10.89,29.76,12,45.4,17.58,13.56,4.86,22.78,15.45,35.35,21.3,18.68,8.69,46.09,8.35,66.07,4.1C255.59,452,273,440,292,434.37c12.59-3.7,26.56-2.3,38.58-8.14,10.18-9.79,19-21.68,29.59-31,6.8-6,14.22-10.29,19.09-18.2,12-19.52,5.39-45.08-9.59-61.34-7.18-7.79-20.1-13.69-29.58-19.09-25.08-14.24-47-24.77-76.59-28.25-3.52-.42-8.13.66-10.64-2.66-1.62-2.16-2.92-5,.56-6.13C259.91,257.53,281.92,263,289.41,264.94Zm-25,76.6c-3.15-3-10.21-4.59-8-9.93,1.86-4.46,9,.1,11.67,1.8,11.48,7.24,16.12,14.73,7.37,26.57-14.18,19.16-50.39,23-72.79,19.92-15.47-2.14-54.6-12.55-54.87-31.77-.1-7.43,10.54-16.5,17.51-18.26,4-1,7.93,1,5.94,5.27-.56,1.19-4.88,2.85-6.36,3.93-6.26,4.55-7.89,12.44-1.8,17.88h0c8.24,7.37,28.57,13.78,39.64,15.56,16,2.58,45.45-.27,58.51-10.19C268.78,356.64,272.1,348.76,264.46,341.54ZM138.6,363.92c7.72,10,17.51,13.66,29.41,17.42,26.67,8.46,50.28,12.62,78.16,6.18,18.16-4.21,48.87-14.72,50.35-36.14.69-10.08-10-20.83-18.55-25.58-3.3-1.82-11.06-3.59-12.74-6.49-.82-1.41-1.29-3.84.06-5.07,1.94-1.75,9.23,1.12,11.6,2.08,12.31,5,32.56,19.74,31.44,34.1-2.24,28.68-45.63,43.27-70.16,47.7-26,4.69-48.65-1.9-73.14-9.34-22-6.67-52.48-23.13-40.72-49.95,4.6-10.5,23.79-21.9,35.27-23.66,2.76-.42,8.66-1.12,9.13,2.43.55,4.16-3.55,3.11-6.37,3.87C141.31,327.18,122,342.43,138.6,363.92Zm29.15-59.19c-12.41,2.46-24.16,4.75-35.26,10.86S101.36,339.12,103.38,353c1.65,11.31,17.41,27.65,27,33.92,9.91,6.47,21.91,7.16,33.23,10.54,20.36,6.07,41,17.61,62.85,16.33,10.36-.6,23.39-5.11,33-8.92,12-4.76,27.66-11,39-16.9,8.18-4.23,15.55-9.05,20.8-16.56,25.87-36.91-25.84-59.87-54.51-70.34-5.08-7.51-.12-7.21,6.36-5.66,17.49,4.21,54,24.29,62.89,39.61,7.34,12.7,5.2,23-1.73,35.2-13,22.91-42.6,31.29-66.24,40-7.79,2.88-15.49,6.52-23.38,9.05-31.25,10-53.07-4-81.22-13.29-11.49-3.8-24.76-5.57-35.26-11.34-12.75-7-34-31.23-32.92-46,.82-11,22-31.87,31.56-37.73,9.88-6,24.07-11.78,35.7-13.19a29.16,29.16,0,0,1,8.65,0h0C170.14,299.83,170,303.46,167.75,304.73Zm-58.3,3.81c-14.59,10.07-38.5,30.34-31.1,49.8,2.66,7,7.67,12,11.88,17.83,8.39,11.63,15.19,27.87,30.39,32,11,3,22.71,2.9,33.81,6.77C169,420,181,429.82,196.16,433.78c34.91,9.12,60.15-11.91,91.59-19.95,7.42-1.9,15.52-2.69,22.64-5.18,8.23-2.89,12.91-9.07,19.08-14.79h0c16.7-15.48,32.25-25,24.85-50.57-7.3-25.25-49.1-47.39-73.52-55-4.24-1.32-14.81-2.92-17.8-4.82s-1.89-5.22,1.81-5.33c12.53-.36,37.84,9.78,48.93,15.94,24.63,13.65,62.34,35.83,53.79,68.51-3.65,13.93-16.71,21.37-26.39,31.29-9.95,10.22-13.58,17.67-28.6,22.31-9.33,2.9-19.19,4.66-28.64,7.64-36.14,11.44-58.81,30.43-99.16,16.36-12.81-4.46-23.12-12.36-35.87-16.69-10.89-3.71-21.17-4.9-31.94-7.65C99.49,411.41,90,392.51,81,379.1c-8-11.88-15.81-18.14-13.38-34,1.54-10.07,21.17-31.26,29.57-37.83,11.77-9.19,26-15.71,40.14-20.82,8.15-2.93,25.58-8.7,33.85-7,2.8.58,2.48,6.13,0,7.11C149.75,291.72,127.75,295.91,109.45,308.54Zm128.76,52.12A67.16,67.16,0,0,1,201,363.75c-5.92-1.22-21.61-6.55-23.84-12.26-.88-2.25-1.27-7.76,2.49-7,1.89.39,8.31,5.8,11.06,7.21,11.81,6.06,28.54,6.09,41.16,2.42,4-1.15,12.43-5.73,15.9-5.23a5.73,5.73,0,0,1,2,1C253.83,354.7,241.44,359.41,238.21,360.66Zm8.23-116.48c.78-.07,5.1.36,6.07.5,2.56.38,5.46.72,6,3.6a25,25,0,0,1-11.6,1.34C242.52,249,242.94,244.48,246.44,244.18Zm7.19,54.75c2.25,14.23-2.08,32.65-15.71,40.41-15.7,9-37,9.68-49-5.15-23.54-29.2,2-62,13-90.71a298,298,0,0,0,12-40.14,1.7,1.7,0,0,1,1.16-1.18v0a2.65,2.65,0,0,1,2.05.14c1.43.85,5.87,19.88,6.88,23.09C232.08,251,249.44,272.39,253.63,298.93ZM234.49,199.8c8.09-.73,24.69,1.71,32.66,3.81,18.32,4.79,21.64,8.68,34.1,21.15,12.73,12.73,21.89,12.66,37.23,19.48a144.84,144.84,0,0,1,16.89,9.35c4,2.56,8.09,5.36,10.9,9.18a4.24,4.24,0,0,1-1,1.82l0,0a6.4,6.4,0,0,1-2,.92c-2.71.18-12.1-6.59-15.05-8.19-16.32-8.86-35.14-11-49.74-22.54-5-4-9.11-9-14-13-10.17-8.28-24.13-11.23-37.11-12.76-4.53-.53-10.22-.16-14.45-1.19C229,206.89,228.16,200.38,234.49,199.8Z" transform="translate(-8.6 -10.06)"/><path d="M415.28,140.38h0c-1.16.8-5.93-5.83-6.88-6.87-10-10.83-25.73-24.95-38.58-32.36-9.3-5.37-19.61-8.92-28.32-15.27-7-5.1-12.49-12.65-18.85-18.44-19.47-17.65-60.14-25.92-86.26-24.93-23.43.9-47.4,11.34-70.55,4.84-1.41-.41-2.49-1.37-3.52-1.64-32.88-8.91-67.14,2.14-93.81,20.86C59.3,73,48.9,80.78,40,87.61,28.43,96.46,20.91,112,11.29,122.86l-1.75.6c.87-7.12-.39-13.78,2-20.69C17.26,86.46,36.05,73.13,50,63.37c28.9-20.27,53.25-31.17,90-31.8,14.17-.25,24.9,2.82,38.59,4.48,20.79,2.54,39.44-3.43,59.79-4.48,25.18-1.3,70.78,5.69,91.4,20.38,10.34,7.37,17.37,19.16,27.59,26.94,7.82,5.94,17.83,10.23,26.09,16,10.22,7.2,29.95,24.75,31.89,37C415.48,133.13,416,139.86,415.28,140.38Z" transform="translate(-8.6 -10.06)"/><path d="M78.39,12.05c-8.65,4.24-17.74,6.21-26.54,9.69C41.9,25.67,33,31.68,24.55,38A113,113,0,0,0,8.62,51.68c.42-9.54-.15-18.14,6.63-25.85,5.3-6,19.72-14.52,27.87-15.25,11.68-1.05,24.55.66,36.28.4C79.66,12.26,79.05,11.71,78.39,12.05Z" transform="translate(-8.6 -10.06)"/><path d="M414.33,103.12v8a3,3,0,0,1-2.14-.91c-2.18-1.87-4.57-4.94-6.65-6.86-6.7-6.2-14.49-13.32-21.6-19-7.69-6.12-17.09-10.69-23.75-17.83-4.94-5.3-8.71-11-14.27-16C319.81,27.12,270,19.7,235.47,22c-12.53.85-25.76,4.44-38.46,5.05-19.43.92-39.14-6.19-59.45-5.51-25.93.86-51.74,5.38-73.3,19.94-4.06,2.75-7.49,6.3-11.48,9.06-13.49,9.34-25.07,13-35.23,26.9a40.11,40.11,0,0,0-5.37,9H10.55l-1,1.83V71.14c0-2,4.53-9.24,6-11.18,13.7-18.42,48.53-33.2,70.19-41.71S132.21,9.63,155.17,11c10.74.63,22,3.55,32.79,4.1,13.55.69,27.36-2.86,40.86-3.65,37.05-2.18,74.85-.61,108.39,16.37,18.72,9.48,27.4,22.31,41.71,35.76,10.44,9.82,23.36,17.16,31,29.56C411,94.82,414.33,101.55,414.33,103.12Z" transform="translate(-8.6 -10.06)"/><path class="cls-1" d="M169.15,297.75h0Z" transform="translate(-8.6 -10.06)"/><path d="M220.27,235.46c-.32-1.06-1.11-5.59-1.27-5.85h0l-1.81-.54a11.87,11.87,0,0,1-.73,5c-7.59,25.32-42.92,63.7-25.31,89.78,16.9,25,53.07,13.44,55-15C247.83,285.12,227.25,258.84,220.27,235.46ZM205.72,307c-.77,6.51-8,9.09-10.62,1.64-2.25-6.48-1-14.65,1.56-20.88.89-2.17,4.37-9.68,7-9.56,1.93.08,2.48,2.67,2.6,4.17.33,4.21-.88,10.25-1,14.6C205.21,300.27,206.06,304,205.72,307Z" transform="translate(-8.6 -10.06)"/></svg>