<svg width="404" height="604" viewBox="0 0 404 604" fill="none" xmlns="http://www.w3.org/2000/svg">
<path d="M170.524 79.3664C180.222 78.5464 188.539 82.0564 197.633 82.2722C208.223 82.5311 218.008 78.4601 229.087 79.2369C239.088 79.9274 245.261 84.0272 254.052 87.0193C261.664 89.6087 269.046 90.4142 276.326 94.2839C283.909 98.3117 289.363 104.771 296.197 109.403C303.867 114.596 312.716 117.257 320.141 123.313C326.429 128.434 330.774 135.253 336.328 141.022C341.638 146.517 348.098 151.149 352.933 157.032C359.653 165.189 362.415 174.813 368.085 183.472C372.862 190.766 379.351 196.506 382.877 204.648C386.402 212.818 387.136 222.025 389.956 230.426C393.927 242.265 400.532 251.457 399.884 264.764C399.553 271.582 396.978 278.243 396.632 285.047C396.1 295.591 400.733 304.51 399.913 315.759C398.963 328.72 389.467 338.243 387.467 351.219C385.668 362.857 386.1 369.675 379.279 380.292C373.999 388.52 365.322 393.785 359.566 401.611C352.53 411.162 350.501 422.426 342.098 431.503C336.256 437.804 328.4 441.99 321.982 447.701C315.91 453.11 311.32 459.871 304.874 464.978C293.622 473.868 282.456 474.544 269.276 478.802C253.045 484.038 242.426 494.165 223.576 491.72C215.936 490.727 208.698 487.419 200.899 487.001C184.712 486.138 173.258 495.028 155.804 491.561C143.66 489.145 134.811 481.923 123.76 477.45C110.566 472.113 99.7738 470.789 88.3058 461.338C78.4062 453.182 75.0104 444.55 68.1613 434.812C61.3841 425.159 50.7506 419.535 43.9159 409.522C39.2538 402.689 37.743 395.597 34.0019 388.549C26.606 374.638 14.8214 363.691 10.3176 348.054C6.77797 335.755 9.92915 324.506 6.14485 312.206C5.36785 309.703 4.11601 307.358 3.38217 304.855C1.23822 297.591 0.993605 279.882 1.9145 272.201C2.44689 267.684 5.4254 262.203 6.72041 257.686C10.0299 246.12 7.65569 236.022 12.735 224.427C15.9437 217.12 21.7137 211.351 25.0663 204.417C27.8578 198.62 28.7355 192.233 31.2392 186.421C36.6207 173.921 47.5994 167.088 55.945 156.802C62.8086 148.358 66.4058 138.116 74.219 130.247C87.4713 116.926 104.249 115.387 118.595 104.756C121.573 102.541 124.106 99.7503 127.199 97.6788C132.408 94.1832 138.998 92.1692 144.739 89.436C153.56 85.2355 160.02 80.3014 170.524 79.4095V79.3664ZM222.296 86.2713C216.008 86.5014 209.878 88.7599 203.691 89.1771C188.511 90.1985 176.625 83.4086 161.589 88.7168C156.869 90.3855 152.869 93.3057 148.437 95.4347C143.617 97.7507 138.063 99.6783 133.487 102.21C127.3 105.634 122.753 110.813 116.94 114.394C106.076 121.098 93.7161 123.083 83.4567 131.484C72.7801 140.216 70.1757 150.43 62.1611 160.384C55.6141 168.512 44.0166 176.985 39.4553 185.817C36.3617 191.816 35.5991 199.023 32.9371 205.209C29.1528 213.984 21.4547 220.975 18.3899 230.066C15.7855 237.777 16.8934 244.869 15.6128 252.522C13.9149 262.735 8.10175 271.151 7.41108 281.997C6.67724 293.405 10.0155 298.885 13.0947 309.113C17.2387 322.866 14.0012 334.777 18.3899 348.212C23.3397 363.346 34.8796 373.013 41.3834 386.765C44.7648 393.914 46.29 400.776 51.1535 407.451C57.8875 416.672 68.78 422.354 75.2982 431.978C81.4135 441.012 83.8308 448.089 92.9534 455.656C104.565 465.294 114.494 466.042 127.803 471.48C139.401 476.212 148.293 484.096 161.675 485.189C172.913 486.109 181.359 481.621 191.791 480.183C207 478.083 217.317 485.822 231.908 484.829C243.635 484.038 254.743 476.917 265.635 473.148C277.578 469.005 289.449 467.754 299.838 460.187C307.047 454.937 311.09 448.176 317.407 442.479C323.608 436.883 331.407 432.913 337.048 426.713C344.185 418.873 345.681 410.457 350.847 402.028C358.401 389.728 371.883 383.356 377.164 369.172C380.502 360.224 379.438 350.888 382.128 341.854C384.833 332.791 391.035 325.93 392.474 316.105C394.258 303.92 388.143 294.167 389.812 281.652C390.92 273.366 393.136 266.576 392.014 257.887C390.762 248.264 385.164 240.568 382.243 231.606C379.337 222.687 379.049 213.681 374.589 205.065C371.178 198.462 365.264 193.182 361.178 186.925C355.998 178.999 353.768 170.109 348.055 162.47C342.803 155.464 335.379 150.358 329.407 144.042C324.529 138.878 321.105 133.354 315.32 128.693C308.486 123.198 299.939 120.35 292.701 115.272C283.708 108.957 278.513 101.764 267.348 97.9233C263.851 96.715 260.11 96.154 256.613 94.9887C244.901 91.0903 235.275 85.7966 222.296 86.2857V86.2713Z" fill="black" stroke="#1D1D1B" stroke-width="2" stroke-miterlimit="10"/>
<path d="M400.373 216.156C398.992 216.386 399.64 215.811 399.395 215.149C396.934 208.316 394.474 201.411 390.906 194.995C386.632 187.328 380.258 180.826 375.797 173.259C371.437 165.879 368.89 158.528 363.495 151.494C358.876 145.467 353.178 141.18 347.897 135.829C338.558 126.363 331.623 115.143 319.608 108.266C314.155 105.145 308.097 102.843 302.672 99.4626C290.873 92.0973 285.305 82.7182 270.902 78.1724C265.966 76.6188 260.757 75.9859 255.779 74.5905C246.829 72.1018 238.224 66.7218 228.627 66.6642C218.526 66.6067 208.382 71.0086 198.583 71.0517C187.92 71.0949 177.863 66.3765 167.143 67.1389C157.948 67.7863 152.322 72.3895 144.567 75.842C139.574 78.0717 134.048 79.3232 129.156 81.74C122.393 85.0917 117.904 90.3711 112.119 94.7586C99.4716 104.339 84.2912 106.857 71.6721 117.013C60.8084 125.744 57.8587 133.21 50.6067 143.985C41.556 157.406 26.9944 165.779 20.6057 180.739C17.7567 187.428 16.2602 194.679 12.9076 201.195C9.9003 207.05 4.99366 212.531 2.79215 218.731C2.10148 218.529 1.92882 216.501 1.88565 215.926C0.964756 204.36 3.72744 204 7.78512 194.664C10.3895 188.666 11.7853 182.106 14.7494 176.122C22.0877 161.305 36.4335 151.911 45.7144 138.101C54.1895 125.5 58.0889 117.53 71.557 108.252C83.6005 99.9517 98.2341 97.2617 109.616 88.0982C112.911 85.4514 115.616 82.2003 119.098 79.6829C126.825 74.1014 135.545 71.9148 144.279 68.2178C149.358 66.0744 153.732 63.0823 159.301 61.5143C173.1 57.659 181.704 62.737 194.496 63.6289C207.159 64.5064 218.497 58.8962 231.433 59.7737C240.699 60.4066 247.145 64.4633 255.448 67.1389C264.484 70.0591 272.815 70.6921 281.593 75.1084C290.025 79.3664 295.938 86.5015 303.622 91.6658C310.371 96.2115 317.781 99.0454 324.716 103.059C336.472 109.863 344.17 121.616 353.465 131.053C356.732 134.376 360.804 137.397 364.113 140.978C372.79 150.386 376.358 159.737 382.747 170.209C388.848 180.221 400.086 191.787 400.877 203.382C401.165 207.64 400.532 211.898 400.388 216.141L400.373 216.156Z" fill="black" stroke="#1D1D1B" stroke-width="2" stroke-miterlimit="10"/>
<path d="M1.87116 359.346C1.89994 359.174 2.33161 358.109 2.79206 358.268C5.25257 365.877 9.55487 373.228 13.9867 379.989C17.4976 385.355 22.0589 390.347 25.0806 395.971C28.7066 402.718 30.3757 409.522 34.7931 416.269C40.7789 425.389 49.8871 431.086 56.8802 439.257C65.8013 449.657 69.7727 461.582 81.1831 470.544C94.0324 480.643 107.429 482.283 121.789 488.756C134.624 494.553 145.977 503.803 161.128 504.264C173.488 504.638 184.726 498.553 196.726 498.179C207.518 497.848 215.936 502.509 225.936 503.328C246.296 504.997 254.023 496.539 270.959 490.223C281.981 486.124 293.852 484.541 304.37 479.104C316.989 472.573 323.954 460.633 334.529 451.988C339.897 447.6 346.127 444.248 350.947 439.242C359.868 429.964 361.696 419.017 368.674 409.148C375.308 399.769 385.394 393.368 391.395 382.866C397.539 372.121 398.69 358.944 399.942 347.004C400.963 346.544 400.863 348.155 400.863 348.514V376.594C400.863 389.555 381.049 403.955 373.855 414.428C367.998 422.944 365.538 432.754 358.775 440.94C352.473 448.549 343.465 453.009 336.141 459.525C329.536 465.395 324.587 472.889 317.666 478.543C305.392 488.569 293.089 489.936 278.456 494.611C259.649 500.624 249.865 512.132 227.735 510.708C218.108 510.09 209.216 505.529 199.532 505.098C191.172 504.724 184.611 507.658 176.855 509.385C145.401 516.362 134.509 500.178 108.479 490.842C95.2699 486.095 86.9675 484.225 75.8736 475.09C63.5422 464.934 59.8874 453.484 49.9735 442.263C44.2035 435.718 36.9946 431.014 31.57 424.037C24.9223 415.478 22.5049 406.199 17.2386 397.252C14.9219 393.324 1.89994 377.069 1.89994 374.437C1.89994 370.02 1.29561 363.403 1.89994 359.318L1.87116 359.346Z" fill="black" stroke="#1D1D1B" stroke-width="2" stroke-miterlimit="10"/>
<path d="M2.34605 172.525C1.95755 169.26 1.48272 165.217 1.87122 161.938C2.82089 154.083 20.0876 140.043 25.6418 133.181C35.6421 120.81 40.6063 109.863 53.6427 98.8726C68.2619 86.5588 85.0682 83.2502 99.4284 72.1016C104.982 67.786 109.702 62.593 115.918 58.9966C122.077 55.4435 128.48 53.9186 134.868 51.2286C146.826 46.1794 157.301 39.3608 171.301 40.3677C179.129 40.9288 187.1 44.6545 194.87 45.1293C208.77 45.978 219.763 38.9724 234.21 39.9074C245.706 40.6554 254.441 46.2369 264.815 49.7469C273.305 52.6096 281.621 53.8755 289.737 57.9897C298.831 62.6073 304.773 69.6849 312.86 75.2664C322.673 82.0274 334.299 85.6381 343.523 93.2623C351.134 99.5631 356.818 107.648 363.624 114.653C371.02 122.277 379.15 128.736 385.51 137.411C389.898 143.395 392.891 150.127 396.445 156.557C399.697 162.455 402.215 164.11 400.733 171.777C400.604 172.468 400.114 174.338 398.978 173.618C395.697 168.253 392.013 163.074 388.747 157.694C381.164 145.222 377.927 138.95 367.336 128.031C360.012 120.479 352.933 112.668 345.609 105.145C332.17 91.3059 317.277 88.0836 302.831 76.4316C296.701 71.483 292.989 67.0236 285.291 63.4417C277.319 59.7303 268.714 58.7233 260.527 55.9038C252.023 52.9836 244.469 48.1214 235.044 47.3158C220.224 46.0355 208.151 53.5878 193.561 52.3938C185.043 51.6889 176.999 47.3877 168.049 47.6754C157.617 48.0063 152.049 51.991 143.185 55.5442C136.696 58.1335 129.789 60.0612 123.515 63.0821C112.465 68.3902 105.4 77.4385 95.0397 83.5523C88.6079 87.35 81.658 89.6372 75.0678 92.9746C45.11 108.151 36.8364 135.569 13.2385 156.586L2.34605 172.525Z" fill="black" stroke="#1D1D1B" stroke-width="2" stroke-miterlimit="10"/>
<path d="M400.834 402.747V411.608C400.834 412.414 391.625 422.368 390.287 424.21C384.244 432.553 380.718 442.867 374.401 451.254C367.437 460.504 358.387 465.323 349.739 472.702C338.674 482.139 331.206 493.691 317.637 500.581C305.982 506.493 292.341 508.32 280.197 513.111C264.945 519.138 255.333 528.086 237.419 529.294C224.253 530.172 217.202 526.057 205.374 524.259C187.993 521.598 173.56 530.488 155.114 529.323C136.235 528.143 125.357 517.93 109.774 510.78C95.5003 504.235 82.2193 502.163 68.7656 492.943C54.9954 483.52 51.2543 474.975 42.3043 462.388C34.1314 450.894 22.1886 444.004 14.4617 432.251C12.2314 428.856 1.88574 409.681 1.88574 406.847V396.475C1.88574 396.159 2.41813 395.684 3.02247 396.288C4.60526 397.899 7.90033 403.567 9.08022 405.753C13.6127 414.169 16.0157 422.44 21.8576 430.525C27.6276 438.509 35.4264 443.874 42.1317 450.894C52.1464 461.396 56.276 474.098 68.003 483.736C81.6581 494.956 96.4356 497.359 112.033 504.364C127.947 511.514 138.307 521.094 157.459 522.404C175.388 523.626 188.295 513.988 206.713 517.412C213.619 518.692 220.756 521.727 227.807 522.332C250.426 524.274 261.563 512.506 280.787 505.86C292.341 501.876 304.399 499.718 315.364 494.108C326.659 488.325 333.235 477.665 342.386 469.682C349.796 463.223 358.919 458.36 365.523 451.125C374.056 441.774 377.438 428.971 385.064 418.844C388.013 414.931 391.323 412.241 394.647 408.789C396.071 407.322 397.899 404.301 399.28 403.193C399.87 402.718 400.057 402.632 400.877 402.747H400.834Z" fill="black" stroke="#1D1D1B" stroke-width="2" stroke-miterlimit="10"/>
<path d="M400.834 138.835L389.467 124.191C378.387 113.517 368.675 101.548 357.854 90.6729C344.99 77.7405 328.875 72.7776 314.63 61.9455C301.363 51.8615 297.262 48.2652 280.758 42.1946C271.031 38.627 260.743 34.2108 251.174 30.9597C233.836 25.0617 226.181 28.356 209.648 32.1105C193.115 35.8651 190.108 31.1611 176.194 28.8882C158.812 26.0399 147.79 32.7435 132.696 38.8284C128.25 40.6266 123.53 41.95 119.141 43.8633C104.278 50.3942 94.7089 62.7943 80.8955 70.7637C68.0749 78.1721 54.7651 81.9267 43.2396 91.7374C30.5917 102.498 24.3325 116.135 13.8861 128.233C10.3176 132.376 6.3031 136.346 2.34613 140.115C2.1303 137.267 1.33891 133.829 2.10152 131.038C2.82097 128.42 9.74206 121.86 11.9723 119.098C23.2389 105.116 29.9154 91.4641 45.8583 80.7758C56.1608 73.8709 68.6217 70.0444 79.1544 63.5135C91.2267 56.0332 100.191 45.2299 113.285 38.814C119.026 36.0089 125.3 34.2395 131.185 31.7797C146.38 25.4214 156.107 18.574 173.949 21.0483C181.359 22.0696 188.554 25.6371 195.806 26.1119C208.137 26.9318 217.231 21.2065 229.116 20.4872C246.225 19.4515 255.333 25.5364 270.024 31.0604C282.96 35.9226 295.478 38.7997 306.96 46.654C312.428 50.3942 317.105 55.0694 322.572 58.8527C333.321 66.2611 345.451 70.6198 355.552 79.0064C364.66 86.5731 371.624 95.9379 379.812 104.281C383.97 108.525 400.848 123.097 400.848 128.247V138.835H400.834Z" fill="black" stroke="#1D1D1B" stroke-width="2" stroke-miterlimit="10"/>
<path d="M399.453 109.043C394.057 101.721 387.639 94.8591 381.193 88.2994C370.732 77.6831 358.013 66.1174 345.322 57.889C338.458 53.4439 330.731 49.9339 323.954 45.4601C318.285 41.72 313.234 36.7139 307.522 33.1751C296.658 26.4284 283.377 23.35 271.276 19.092C255.333 13.4817 247.606 8.23109 229.159 9.74154C220.512 10.4464 211.763 14.8051 202.77 14.8915C192.324 14.9922 183.187 10.3745 173.158 9.684C154.049 8.36055 145.718 13.7406 129.458 20.2428C118.724 24.544 107.069 26.6442 97.8171 33.88C90.4931 39.6053 84.7375 45.9205 76.6365 51.243C62.1756 60.7517 45.0815 66.3907 31.2394 77.0789C18.7929 86.6883 11.843 99.6062 2.56216 111.618C-0.660969 102.037 4.69172 95.8373 10.2746 88.5871C26.4047 67.671 39.8152 63.9739 62.2763 51.6458C79.0539 42.4392 90.0758 28.1115 107.414 20.401C113.587 17.6534 120.249 15.7258 126.537 13.2084C144.265 6.10207 152.797 0.563744 173.604 1.90157C183.676 2.54891 193.115 7.61252 203.216 7.09465C210.555 6.72063 217.922 3.31133 225.462 2.39067C247.635 -0.299371 258.499 6.34662 277.737 13.4385C286.859 16.7903 295.766 18.9481 304.514 23.4075C313.436 27.9677 319.263 33.5635 327.177 38.958C331.537 41.9214 336.415 44.1079 340.875 46.8987C356.617 56.7094 370.502 67.6422 383.495 80.5026C386.704 83.6817 399.179 96.1538 400.33 99.3329C400.762 100.527 401.467 110.323 399.453 109.014V109.043Z" fill="black" stroke="#1D1D1B" stroke-width="2" stroke-miterlimit="10"/>
<path d="M400.834 430.827V443.572C400.834 446.751 385.337 467.264 382.114 470.573C375.927 476.946 367.84 481.405 361.063 487.188C351.796 495.114 344.746 505.04 334.4 511.945C322.788 519.699 312.327 521.655 299.234 525.726C271.837 534.242 258.196 551.461 225.907 547.39C218.929 546.513 212.511 543.593 205.763 542.456C188.295 539.522 173.877 548.771 156.049 547.865C133.473 546.729 123.544 537.982 105.27 528.79C87.9317 520.073 70.6074 517.627 54.3479 505.529C39.038 494.122 32.7212 478.471 20.1309 465.366C16.9653 462.071 1.85693 448.477 1.85693 444.852V434.48C1.85693 434.207 2.44688 433.646 3.00805 434.279C4.57645 436.034 6.31751 439.587 7.95785 441.745C12.7782 448.103 17.5265 452.361 22.908 458.015C40.8654 476.917 47.0095 496.121 72.7513 508.636C82.6365 513.441 94.1333 515.728 104.062 520.418C121.674 528.747 133.041 539.608 154.668 540.946C173.316 542.097 188.712 532.056 207.518 535.623C218.555 537.723 226.8 541.607 238.829 540.96C259.837 539.838 272.11 527.726 290.456 521.382C304.399 516.563 317.234 515.067 329.796 506.738C340.156 499.861 346.501 490.281 355.538 482.412C367.898 471.638 377.538 467.193 387.179 452.793C391.179 446.809 393.755 439.357 397.712 433.689C398.445 432.625 399.352 430.87 400.863 430.798L400.834 430.827Z" fill="black" stroke="#1D1D1B" stroke-width="2" stroke-miterlimit="10"/>
<path d="M400.834 466.243V476.831C400.834 477.19 396.632 481.563 395.985 482.239C390.013 488.396 382.402 492.87 375.869 498.423C363.034 509.313 354.53 523.079 338.904 531.264C327.652 537.162 315.853 539.018 303.982 543.132C276.182 552.742 264.657 568.652 230.929 566.48C221.605 565.875 212.497 561.33 203.561 560.092C189.417 558.136 176.323 565.545 162.524 566.451C131.386 568.522 116.781 554.051 91.8741 542.629C83.2551 538.673 73.7728 536.443 65.0387 532.717C51.8153 527.064 37.9299 517.598 28.6922 507.068C23.3251 500.94 19.6559 493.762 14.5335 487.461C11.9866 484.325 3.56909 477.061 2.54747 474.471C1.2093 471.091 2.6338 468.012 2.31725 464.531L3.71298 465.164C7.94333 470.516 13.3392 474.932 17.7566 480.125C27.4835 491.576 32.1024 502.393 44.6352 512.463C60.794 525.453 75.6002 527.927 93.7159 536.155C114.163 545.434 129.357 558.237 153.718 559.575C174.021 560.697 188.165 549.649 209.36 554.238C222.123 557 228.253 560.538 242.512 559.575C263.146 558.179 275.348 547.347 292.802 540.039C308.284 533.566 325.464 531.523 339.767 522.59C351.782 515.081 359.192 503.026 369.854 494.107C374.329 490.367 379.495 487.303 383.97 483.549C390.272 478.255 395.107 471.954 400.834 466.257V466.243Z" fill="black" stroke="#1D1D1B" stroke-width="2" stroke-miterlimit="10"/>
<path d="M400.834 494.323V502.307C394.258 507.788 386.992 512.722 380.718 518.491C374.2 524.489 368.847 531.567 362.013 537.292C341.379 554.569 317.709 555.144 294.197 567.228C274.11 577.542 259.016 585.957 234.627 585.022C217.332 584.361 206.252 575.701 187.719 579.168C170.539 582.39 161.79 586.159 143.171 583.656C120.077 580.549 107.098 571.256 88.0037 560.913C69.1397 550.685 50.9377 549.376 32.635 535.336C26.6204 530.718 1.88574 505.875 1.88574 499.718V492.381C1.88574 492.381 2.44691 491.245 2.57641 491.302C8.90755 498.02 13.7422 505.86 19.7281 512.852C29.4118 524.158 42.477 535.192 56.5782 541.478C68.6505 546.858 81.3416 549.232 93.0974 555.734C110.666 565.458 122.753 573.888 144.092 576.765C162.395 579.225 171.704 574.809 188.554 572.191C209.159 568.997 223.706 579.829 244.814 577.671C267.074 575.399 277.118 567.76 295.593 558.597C313.925 549.505 335.652 548.268 352.055 536.199C362.847 528.258 370.574 517.814 380.488 509.212C386.244 504.22 392.92 500.135 398.546 494.985L400.834 494.309V494.323Z" fill="black" stroke="#1D1D1B" stroke-width="2" stroke-miterlimit="10"/>
<path d="M400.834 518.073V525.194C400.834 526.258 397.711 528.085 396.891 528.848C381.25 543.377 370.171 558.179 349.221 566.81C340.184 570.522 331.047 572.032 321.882 574.967C303.421 580.879 289.003 593.38 269.894 598.53C257.074 601.982 234.627 602.63 221.288 601.393C214.482 600.76 207.403 597.235 200.424 596.703C188.007 595.739 177.589 601.292 165.315 601.896C142.063 603.047 121.443 599.666 100.953 589.424C91.4711 584.691 82.8665 578.304 73.2259 573.859C59.0384 567.328 44.8653 565.113 31.0375 556.698C25.8863 553.562 1.87109 534.818 1.87109 529.955V520.662L3.46827 521.108C15.5406 537.982 31.426 550.8 51.4842 558.74C58.7075 561.603 66.5926 563.473 73.6864 566.494C87.1544 572.234 98.8814 581.699 112.508 587.237C130.264 594.459 151.502 598.113 170.61 594.301C184.007 591.625 191.661 587.597 206.122 590.489C220.914 593.438 227.936 597.163 244.368 596.257C271.304 594.79 283.247 584.993 305.291 574.132C323.565 565.142 342.717 564.796 360.3 552.972C373.912 543.823 383.481 528.876 397.165 519.612C398.229 518.893 399.409 517.958 400.819 518.059L400.834 518.073Z" fill="black" stroke="#1D1D1B" stroke-width="2" stroke-miterlimit="10"/>
<path d="M400.834 81.3946C399.884 82.4159 394.143 74.95 393.452 74.2595C373.768 54.4222 347.94 36.7427 323.695 21.9547C310.385 13.827 295.636 7.71327 280.643 2.77913C280.499 2.64966 281.247 1.91602 281.333 1.91602H297.521C303.507 1.91602 324.083 13.5537 329.796 17.1068C345.192 26.7162 361.94 37.8935 376.099 48.999C379.466 51.6458 400.848 70.1165 400.848 72.5332V81.3946H400.834Z" fill="black" stroke="#1D1D1B" stroke-width="2" stroke-miterlimit="10"/>
<path d="M121.602 1.91602C121.357 2.57774 119.847 2.98052 119.142 3.28261C110.393 7.03717 101.184 9.87106 92.9824 14.6901C82.1475 21.0628 73.6868 30.6578 63.039 37.6778C49.4558 46.6398 32.2035 52.1206 19.8865 62.1615C13.3827 67.4552 8.49048 74.1156 2.332 79.6539C0.634105 71.8284 2.41833 69.1671 7.64153 63.6719C21.8866 48.6537 41.4268 43.4031 58.4202 32.0675C69.4709 24.6879 78.6942 14.1723 90.2054 7.7852C91.9464 6.82139 102.594 1.91602 103.803 1.91602H121.602Z" fill="black" stroke="#1D1D1B" stroke-width="2" stroke-miterlimit="10"/>
<path d="M295.435 601.436C297.938 599.263 301.291 597.365 304.255 595.638C311.176 591.611 319.277 587.41 326.961 584.893C346.026 578.664 361.825 576.679 377.955 563.43C386.2 556.654 391.999 547.477 400.834 541.392V550.684C388.69 563.473 378.056 574.017 361.236 581.512C346.818 587.928 331.35 589.683 317.148 596.458C315.723 597.134 308.673 601.436 308.14 601.436H295.42H295.435Z" fill="black" stroke="#1D1D1B" stroke-width="2" stroke-miterlimit="10"/>
<path d="M97.5723 601.436H85.7878C84.5071 601.436 67.1109 590.963 63.528 589.41C44.4195 581.095 28.3327 578.678 11.1091 565.386C5.79955 561.287 1.33897 558.525 1.84258 551.533C1.90014 550.814 1.91453 548.987 3.02248 549.16C4.60526 549.419 12.0587 557.446 14.1308 559.1C31.268 572.737 51.9305 576.808 71.6866 585.67L97.5723 601.45V601.436Z" fill="black" stroke="#1D1D1B" stroke-width="2" stroke-miterlimit="10"/>
<path d="M75.3702 2.362L65.8878 10.5472C56.2185 17.2076 47.6858 25.1626 37.3114 30.9311C28.1744 36.0235 18.246 39.3753 9.97234 45.9925C9.31045 46.5103 2.76348 53.0269 2.33181 52.4658C1.62675 46.5679 1.09436 44.2231 6.01538 40.1521C15.3538 32.4128 29.7859 27.8958 40.3762 20.8614C48.8945 15.1936 56.0026 7.85716 64.6072 2.46269C68.2188 1.78659 71.701 2.47708 75.3702 2.362Z" fill="black" stroke="#1D1D1B" stroke-width="2" stroke-miterlimit="10"/>
<path d="M400.834 55.0408C400.215 55.8176 386.733 42.8134 385.582 41.864C367.495 26.8889 346.717 15.0642 326.86 2.34766H339.58C340.645 2.34766 355.394 11.8275 357.523 13.2229C369.696 21.1923 387.078 32.8156 397.15 42.7127C397.899 43.4463 400.834 46.7693 400.834 47.4742V55.0265V55.0408Z" fill="black" stroke="#1D1D1B" stroke-width="2" stroke-miterlimit="10"/>
<path d="M400.834 567.314V576.175C400.834 576.751 393.179 583.483 392.057 584.389C383.97 590.92 365.567 601.45 354.832 601.45H338.889C338.702 600.458 338.947 600.76 339.479 600.486C345.034 597.624 353.653 596.2 359.811 594.013C375.653 588.403 385.927 580.865 397.611 569.716C398.661 568.709 399.007 567.041 400.834 567.328V567.314Z" fill="black" stroke="#1D1D1B" stroke-width="2" stroke-miterlimit="10"/>
<path d="M46.4917 601.004C36.477 600.184 13.2532 590.158 5.79973 583.742C2.40394 580.808 1.08015 577.585 2.5766 573.356C11.2819 579.513 20.2319 585.382 30.4192 589.237C36.7792 591.654 43.4844 593.193 49.8156 595.739C53.2545 597.12 56.5064 599.379 60.1324 600.141C60.2763 600.271 59.5425 601.004 59.4418 601.004C55.3409 601.004 50.4774 601.335 46.4917 601.004Z" fill="black" stroke="#1D1D1B" stroke-width="2" stroke-miterlimit="10"/>
<path d="M41.1676 2.7793C31.0378 14.4601 16.0733 20.6746 2.57642 28.27C2.30303 25.8245 1.19508 23.2783 2.6052 20.9623C3.91459 18.8045 14.4473 14.3594 17.5553 12.4606C20.3612 10.7487 30.6781 2.7793 33.081 2.7793H41.1676Z" fill="black" stroke="#1D1D1B" stroke-width="2" stroke-miterlimit="10"/>
<path d="M371.481 2.34776C376.531 2.90878 387.956 11.914 392.273 15.3233C397.208 19.2217 402.215 22.6597 400.604 29.5647C399.41 29.5647 383.452 18.2291 381.208 16.5892C376.617 13.2374 370.243 8.79235 366.142 5.18165C365.207 4.36169 364.488 3.11018 363.394 2.36215C365.97 2.56354 368.963 2.08883 371.481 2.36215V2.34776Z" fill="black" stroke="#1D1D1B" stroke-width="2" stroke-miterlimit="10"/>
<path d="M222.771 98.3403C235.044 98.3547 242.052 103.764 252.657 107.331C258.153 109.172 263.52 109.906 268.93 112.423C277.348 116.336 282.068 122.623 289.276 127.542C295.492 131.772 303.349 134.447 309.306 139.065C315.767 144.071 318.644 150.472 323.853 156.14C329.364 162.139 336.112 166.598 340.918 173.446C345.106 179.416 346.559 185.774 349.883 191.845C353.566 198.577 360.401 204.331 363.926 211.121C368.128 219.234 367.739 227.506 370.445 235.705C372.517 241.977 376.761 247.415 378.603 254.003C381.841 265.583 378.833 271.654 377.322 282.544C375.063 298.77 384.862 305.632 377.15 323.844C372.56 334.676 370.488 335.524 368.934 348.126C366.056 371.358 362.041 371.488 346.976 387.642C337.58 397.726 335.969 410.4 326.86 420.254C322.616 424.842 317.047 428.079 312.299 432.136C303.291 439.832 298.097 448.995 286.96 454.677C278.499 458.993 267.822 460.547 258.671 463.668C245.678 468.085 236.527 474.357 221.706 472.745C215.821 472.098 209.821 469.422 204.079 468.919C188.928 467.567 177.273 474.874 162.582 473.565C152.006 472.616 142.437 465.466 133.027 461.453C124.796 457.929 116.638 456.303 108.709 451.772C93.9032 443.313 90.8239 435.89 82.2337 422.958C74.6939 411.608 62.6935 405.653 56.348 393.583C53.427 388.031 51.9018 381.96 48.8082 376.436C42.9662 365.992 33.7861 357.376 29.7428 345.867C25.4549 333.683 29.1097 322.707 25.6707 310.796C23.3541 302.755 19.2389 296.008 18.9511 287.276C18.5194 274.128 27.2247 263.267 28.232 250.119C28.678 244.322 28.0161 239.877 29.9298 233.993C32.1601 227.146 37.0812 222.456 40.8798 216.587C46.5491 207.812 46.2901 198.188 51.873 189.284C57.4128 180.451 67.2692 174.539 73.4277 166.239C79.3271 158.298 81.6869 148.545 89.4426 141.467C98.4788 133.225 112.307 130.822 122.825 124.723C127.602 121.947 131.948 118.235 136.869 115.387C146.768 109.676 161.531 100.901 172.783 99.2754C182.064 97.9375 186.957 101.045 195.374 101.692C204.468 102.383 213.533 98.3835 222.742 98.3979L222.771 98.3403ZM217.677 105.706C211.749 106.238 205.446 108.842 199.533 109.043C189.575 109.388 182.582 104.67 171.431 106.554C163.028 107.978 147.689 117.113 139.962 121.63C134.379 124.896 129.358 129.47 123.775 132.419C114.695 137.209 103.486 138.993 95.4859 145.725C88.5073 151.595 86.0468 159.952 81.4711 167.188C74.2334 178.624 61.6575 184.479 55.8875 197.268C53.1392 203.353 52.463 210.042 49.5852 215.997C45.9735 223.435 38.592 229.217 36.4337 237.403C34.4911 244.739 35.8725 252.018 34.117 259.426C31.8436 269.021 26.1168 275.84 26.3758 286.356C26.6492 297.101 33.7429 306.495 34.6638 317.054C35.1387 322.535 34.3185 328.404 34.707 333.856C35.9013 350.557 50.7938 363.446 57.9164 378.249C61.0244 384.708 62.4633 390.98 67.1541 396.82C71.5715 402.33 77.658 406.113 82.32 411.162C91.5434 421.145 94.824 433.862 106.422 442.205C115.818 448.967 125.847 450.865 136.279 455.354C145.603 459.367 151.891 464.805 162.61 466.171C177.762 468.099 189.762 459.755 205.403 462.028C210.842 462.82 216.396 465.337 221.72 465.783C235.649 466.948 244.541 461.252 256.844 457.137C268.11 453.368 279.42 452.031 289.204 445.039C294.269 441.414 297.449 436.782 301.694 432.51C309.91 424.224 320.515 418.786 326.673 408.774C330.486 402.56 332.127 395.31 336.314 389.268C343.034 379.572 354.588 373.746 359.005 362.094C361.739 354.887 361.063 349.234 362.041 342.027C363.581 330.562 372.545 321.974 373.538 310.437C374.085 304.006 371.063 298.684 370.013 292.671C368.114 281.781 373.696 272.877 372.66 262.116C371.768 252.953 365.207 244.897 362.833 236.309C360.933 229.448 361.049 223.132 357.955 216.242C354.89 209.409 349.163 204.921 345.307 198.677C340.717 191.255 339.292 182.897 333.738 175.791C329.81 170.756 324.342 166.972 319.968 162.312C315.22 157.248 311.637 150.501 306.558 145.898C300.27 140.201 291.32 137.67 284.399 132.908C278.24 128.679 273.65 122.781 266.758 119.156C261.247 116.25 255.088 115.488 249.246 113.488C237.102 109.316 232.095 104.339 217.691 105.648L217.677 105.706Z" fill="black" stroke="#1D1D1B" stroke-width="2" stroke-miterlimit="10"/>
<path d="M337.796 371.934C335.58 374.135 332.53 376.163 330.328 378.565C322.141 387.484 320.515 398.273 312.99 407.278C307.838 413.45 300.96 416.729 295.421 422.397C291.118 426.813 287.708 432.064 282.701 436.006C273.995 442.867 265.607 442.939 255.319 445.845C243.649 449.139 233.476 455.426 220.771 454.16C212.641 453.354 205.878 449.916 197.173 450.261C188.583 450.607 179.877 454.419 171.244 454.98C158.452 455.8 148.596 448.895 137.631 444.162C126.034 439.156 116.552 437.3 107.501 427.835C101.904 421.98 99.7596 415.967 95.63 409.551C89.9895 400.805 79.8021 395.41 74.2624 386.751C70.6939 381.183 68.7226 374.466 65.4563 368.64C59.5425 358.081 51.2688 350.039 47.8874 337.985C45.7291 330.288 46.8082 323.772 46.2902 316.162C45.5564 305.359 38.5346 297.087 38.5921 285.435C38.6353 274.459 45.9593 267.108 46.7507 257.024C47.4557 248.134 46.0025 244.322 50.8228 235.777C53.9883 230.153 59.7727 225.175 62.2188 219.22C64.0318 214.818 64.262 209.682 65.7153 205.209C69.586 193.37 82.1187 187.27 88.9967 177.287C92.3205 172.453 94.3494 166.426 97.5149 161.492C106.048 148.099 125.027 145.812 138.696 137.771C151.804 130.06 160.352 118.724 177.316 117.703C184.165 117.3 188.626 119.458 194.885 119.904C205.274 120.638 214.569 116.912 224.944 117.732C233.347 118.394 241.592 123.17 249.232 126.133C254.628 128.233 259.995 129.168 265.074 132.06C271.305 135.613 276.024 141.381 282.082 145.107C287.795 148.631 294.629 150.876 299.622 155.493C304.615 160.111 307.795 167.462 312.558 172.338C317.752 177.675 323.321 180.696 327.422 187.4C330.961 193.197 332.041 199.541 335.12 205.266C337.911 210.445 342.688 214.545 345.624 219.637C350.257 227.693 349.984 236.324 352.905 244.797C355.365 251.932 359.826 257.758 360.574 265.713C361.365 274.128 356.559 281.724 357.523 289.722C358.085 294.397 360.646 299.288 361.092 304.107C362.488 319.068 352.833 324.707 350.991 337.841C348.717 354.038 350.717 359.203 337.825 371.977L337.796 371.934ZM315.148 183.918C312.097 180.984 308.241 178.711 305.363 175.561C300.687 170.454 298.126 163.894 292.658 159.348C288.097 155.551 281.881 153.263 276.787 149.984C269.851 145.51 265.161 139.439 257.362 136.174C250.239 133.182 240.009 129.283 232.67 126.852C218.641 122.177 213.332 126.68 200.439 127.197C191.259 127.571 184.295 123.515 174.669 125.14C161.013 127.456 151.905 138.49 140.509 145.064C131.689 150.142 121.89 151.839 113.429 156.471C102.134 162.671 102.062 171.475 95.4429 180.696C88.1477 190.852 75.4279 197.858 72.0033 209.769C70.7083 214.257 70.5644 218.472 68.5212 222.931C64.5786 231.505 55.0819 237.633 54.1178 247.487C53.8013 250.68 54.3481 254.219 54.1178 257.427C53.2833 269.626 45.1103 276.243 46.2183 289.391C46.7507 295.706 50.5638 301.604 52.1034 307.646C54.0171 315.083 52.6789 322.794 53.6862 330.36C55.5711 344.515 64.3772 352.773 71.2695 364.468C74.4926 369.934 76.5646 375.933 79.5719 381.342C84.1908 389.656 92.7954 394.202 98.666 401.51C103.717 407.825 106.091 415.636 111.645 421.779C121.07 432.208 130.725 433.718 143.171 438.969C149.804 441.774 157.143 446.737 164.481 447.557C177.705 449.039 188.741 441.817 202.195 442.982C208.511 443.529 215.202 446.622 221.26 447.197C231.347 448.147 241.217 442.925 250.671 440.221C260.196 437.487 270.758 436.696 278.542 430.41C282.614 427.13 285.334 422.627 288.917 418.945C294.442 413.263 301.665 409.522 306.673 403.581C312.946 396.144 315.105 386.693 321.177 378.695C329.897 367.23 340.717 363.835 342.947 348.069C343.753 342.386 343.062 336.647 344.617 331.051C346.789 323.211 354.027 316.507 354.142 307.948C354.214 301.547 350.142 294.498 349.926 288.096C349.725 282.227 352.818 276.114 353.207 270.388C353.897 260.16 348.156 254.406 345.206 245.43C343.091 239 343.019 231.98 340.329 225.794C337.897 220.212 333.609 216.731 330.156 211.97C323.393 202.619 324.199 192.665 315.119 183.904L315.148 183.918Z" fill="black" stroke="#1D1D1B" stroke-width="2" stroke-miterlimit="10"/>
<path d="M199.806 154.313C200.151 154.515 201.115 154.486 201.489 154.285C202.151 153.939 206.396 147.121 207.821 145.74C218.08 135.67 243.922 141.885 254.052 150.084C255.908 151.58 257.664 154.385 259.52 155.349C261.678 156.457 265.75 156.932 268.412 157.838C279.765 161.736 289.032 170.108 293.492 180.624C294.759 183.616 295.478 188.939 296.903 191.255C298.068 193.139 303.147 196.448 305.147 198.678C311.076 205.266 315.536 214.99 314.86 223.708C314.702 225.823 312.975 230.67 313.277 232.195C313.45 233.116 317.551 238.482 318.443 240.265C321.076 245.53 322.486 251.558 322.27 257.413C322.098 262.016 319.781 267.525 319.939 271.683C320.083 275.178 322.011 279.451 322.616 283.018C324.515 294.426 321.177 299.302 318.803 309.444C317.925 313.184 319.263 315.227 319.522 318.737C320.184 327.685 319.277 337.021 315.565 345.306C314.097 348.586 308.5 355.563 308.054 357.721C306.63 364.439 307.565 369.301 304.471 376.407C302.27 381.471 297.737 385.7 295.838 390.375C293.018 397.309 292.543 403.049 288.14 409.968C272.197 435.07 221.979 445.802 204.31 416.873C203.317 415.248 202.166 410.155 200.022 412.716C197.921 415.248 196.899 418.945 194.209 421.965C175.158 443.313 134.264 434.236 117.487 414.629C110.177 406.07 109.861 400.704 106.004 391.239C104.047 386.42 99.4573 381.802 97.2414 376.537C94.5075 370.035 95.0399 366.338 94.3492 359.792C93.9032 355.549 89.1836 350.845 87.1979 346.601C82.9244 337.495 81.874 328.188 82.32 318.291C82.4208 315.975 83.3992 313.299 83.2697 310.983C83.097 307.905 80.6509 303.158 79.8739 299.878C78.4782 294.009 78.1185 287.65 79.2264 281.709C79.8308 278.501 82.2769 273.61 82.3488 270.776C82.4208 268.13 80.6078 264.03 80.1473 261.182C78.8235 252.924 80.6222 246.019 84.3921 238.597C85.1978 237.014 87.4281 234.684 87.7735 233.116C88.4641 229.98 87.1691 225.549 87.4281 221.996C88.0181 213.739 91.8743 204.547 97.6011 198.246C99.4285 196.246 104.191 193.168 105.184 191.499C106.177 189.831 106.954 185.17 107.875 182.782C111.846 172.597 119.602 164.167 130.178 159.564C134.379 157.723 140.063 156.903 143.574 154.371C147.43 151.609 150.193 148.272 154.768 145.826C165.287 140.202 186.18 136.95 194.899 146.603C196.18 148.027 199.403 154.069 199.82 154.313H199.806ZM195.576 296.497L196.05 244.006C194.784 235.504 188.18 228.829 179.316 226.815C175.848 226.024 171.143 226.283 168.28 225.463C167.287 225.175 165.977 223.823 166.021 222.845C168.898 216.63 178.395 217.321 184.151 219.277C186.784 220.169 192.396 224.47 194.338 223.881C195.547 223.507 195.935 219.766 196.036 218.529C197.273 203.842 191.216 194.017 176.956 188.421C174.222 187.342 172.884 187.069 172.884 183.976C172.884 177.085 181.748 180.365 185.546 182.537C187.331 183.559 194.266 189.931 194.856 189.802C195.719 189.615 195.978 187.745 196.05 187.011C197.863 168.411 194.626 144.316 167.934 150.372C157.272 152.789 155.963 156.572 148.423 161.952C145.531 164.023 139.387 164.354 135.473 165.836C126.106 169.389 118.408 177.373 115.472 186.45C114.019 190.924 114.767 194.65 110.983 198.246C104.508 204.417 99.7451 206.546 97.3277 216.156C95.4428 223.65 97.7162 226.024 98.4645 232.397C98.8961 236.108 94.0614 239.963 92.1045 243.229C88.1188 249.918 87.8454 255.845 89.457 263.239C89.9174 265.382 91.457 268.403 91.5721 270.359C91.7448 273.121 88.6368 279.149 87.9893 282.572C86.8526 288.585 87.3993 294.469 89.0109 300.367C89.8023 303.302 92.752 308.264 92.9247 310.566C93.1118 312.954 91.2987 317.241 91.0829 320.003C90.2915 329.483 92.4211 341.077 98.7666 348.701C100.234 350.471 102.436 351.679 103.472 353.808C102.349 362.741 103.4 370.135 108.134 377.961C112.868 385.787 113.213 386.952 116.206 395.468C123.444 416.068 151.416 431.373 174.107 424.756C201.691 416.715 195.345 384.118 195.978 363.259L194.899 362.54C191.201 366.64 187.115 370.768 182.136 373.516C177.748 375.947 163.603 381.615 159.776 377.199C158.61 375.846 158.193 374.465 159.517 373.099C161.143 371.416 171.373 369.172 174.625 367.791C185.935 362.957 194.957 351.089 196.065 339.437C196.612 333.669 196.77 317.485 195.36 312.422C194.237 308.365 190.914 304.165 187.115 301.978C183.259 299.748 174.712 299.029 177.431 293.102C178.971 289.736 184.64 291.031 187.431 292.182C188.928 292.8 194.755 297.217 195.576 296.454V296.497ZM205.749 297.36C208.238 297.36 209.576 294.872 211.317 293.721C214.555 291.563 221.835 288.902 224.425 293.088C227.591 298.238 218.339 299.95 215.029 301.935C209.533 305.258 206.238 310.94 205.734 316.996C203.979 337.711 206.151 360.109 229.792 368.841C233.145 370.078 240.786 370.869 242.728 373.156C244.915 375.746 242.728 377.587 239.98 378.378C230.641 381.039 215.404 371.358 209.446 364.957C207.331 362.669 206.281 359.649 205.72 365.82C204.612 377.947 205.043 399.898 210.741 410.831C225.418 438.998 272.096 424.469 283.794 400.762C286.384 395.511 286.485 389.671 288.859 384.765C291.852 378.565 296.054 375.53 298.054 367.877C299.334 362.986 298.255 357.376 299.421 353.607C300.14 351.262 304.845 347.09 306.442 344.199C309.953 337.869 311.608 329.324 311.119 322.233C310.874 318.622 308.255 311.818 309.032 309.041C309.637 306.869 311.824 303.704 312.644 301.187C314.299 296.138 314.903 289.966 314.299 284.701C313.723 279.638 310.543 275.423 311.162 270.014C312.169 261.196 315.623 257.082 311.666 247.429C309.853 243.027 306.399 239.676 304.572 235.921C302.514 231.692 305.694 228.11 306.054 223.765C306.601 217.292 303.018 209.668 298.629 204.763C294.687 200.346 288.399 198.375 287.204 192.549C284.931 181.502 281.262 172.482 269.52 167.174C265.261 165.261 258.182 164.714 255.031 163.002C253.074 161.938 251.721 159.492 250.124 158.082C242.512 151.436 224.195 145.999 215.216 152.256C205.403 159.089 204.813 176.265 205.72 186.608C205.82 187.687 205.95 188.737 206.641 189.644C207.13 190.032 207.562 189.831 208.051 189.615C209.504 188.982 213.921 183.947 216.497 182.379C219.979 180.264 229.605 177.2 229.706 183.544C229.778 188.09 224.483 188.248 220.986 190.018C212.842 194.132 206.727 202.087 205.792 210.804C205.633 212.344 205.533 223.391 205.95 223.952C207.101 225.52 212.094 221.392 213.605 220.701C217.533 218.903 223.231 217.493 227.577 217.997C230.584 218.342 238.325 220.773 234.642 224.384C232.728 226.268 226.425 226.038 223.289 226.743C212.281 229.174 205.461 237.892 205.259 248.35C205.245 249.155 205.749 250.004 205.749 250.925C205.59 266.403 205.82 281.896 205.734 297.375L205.749 297.36Z" fill="black" stroke="#1D1D1B" stroke-width="2" stroke-miterlimit="10"/>
<path d="M315.321 368.193C314.961 363.849 318.27 360.21 320.026 356.383C325.263 344.99 324.76 341.307 326.429 329.54C327.911 319.068 335.465 313.831 334.228 302.381C333.868 299.115 332.242 295.778 331.954 292.412C331.307 284.773 334.458 277.509 333.81 269.942C333.379 264.893 330.904 260.045 329.796 255.125C328.904 251.112 328.832 247.098 327.868 243.099C326.731 238.366 321.076 228.455 322.472 224.341C322.645 223.837 323.163 222.931 323.868 223.075C324.242 223.147 328.17 227.836 328.645 228.541C333.71 235.964 333.077 243.214 335.336 251.241C337.134 257.657 340.789 263.066 341.206 269.942C341.624 276.818 338.703 284.04 339.35 291.549C339.839 297.274 342.645 301.733 342.156 307.962C341.609 314.882 336.328 320.175 334.415 326.634C332.256 333.928 333.422 341.724 330.803 349.176C328.17 356.699 321.565 363.115 315.335 368.193H315.321Z" fill="black" stroke="#1D1D1B" stroke-width="2" stroke-miterlimit="10"/>
<path d="M75.3703 234.727C75.9314 240.093 73.2982 244.782 72.6076 250.062C71.6435 257.312 72.9241 263.929 70.6219 271.107C68.1182 278.89 64.9527 282.472 66.1325 291.534C66.9815 298.065 71.2406 303.891 72.0896 310.595C72.7083 315.515 71.7874 320.722 72.1183 325.685C72.9241 337.725 81.3561 348.241 85.4425 359.447C86.1044 361.274 87.644 364.986 86.2339 366.482C84.6367 366.798 79.3848 358.397 78.4207 356.944C72.2766 347.723 65.5714 337.61 64.7512 326.519C64.4203 322.017 65.1253 317.155 64.7512 312.681C63.9886 303.115 56.9956 295.879 57.8013 285.493C58.3481 278.415 63.3123 272.028 64.6073 265.08C65.7009 259.196 64.6793 253.183 66.4491 247.357C67.8304 242.797 71.3126 237.633 75.3559 234.741L75.3703 234.727Z" fill="black" stroke="#1D1D1B" stroke-width="2" stroke-miterlimit="10"/>
<path d="M289.722 247.415C285.967 243.862 278.513 242.466 274.614 238.856C269.232 233.878 270.081 226.038 263.966 221.593C258.671 217.753 251.261 218.026 245.203 215.796C239.821 213.825 235.62 208.359 230.022 207.942C226.267 207.654 219.921 210.546 221.029 203.871C221.36 201.857 224.511 199.9 226.526 199.498C237.174 197.397 240.829 205.568 249.347 208.891C258.21 212.344 266.47 210.819 273.477 218.745C276.974 222.687 276.945 225.851 279.017 229.98C281.535 234.957 289.334 236.41 294.039 240.122C314.543 256.291 298.845 289.175 271.722 280.415C269.103 279.566 265.851 277.552 263.175 277.164C259.549 276.631 252.369 278.976 251.145 274.574C250.066 270.705 253.764 268.863 257.318 268.461C267.463 267.324 273.707 275.754 284.312 272.949C295.722 269.928 297.305 254.608 289.693 247.401L289.722 247.415Z" fill="black" stroke="#1D1D1B" stroke-width="2" stroke-miterlimit="10"/>
<path d="M245.865 230.109C250.599 229.664 260.959 230.325 260.326 236.684C259.822 241.905 251.606 238.194 248.498 238.194C240.282 238.194 229.131 244.955 225.85 252.018C222.123 260.031 224.296 272.388 232.987 276.862C236.268 278.545 240.368 278.717 243.045 279.983C246.052 281.407 244.282 286.485 241.059 286.974C226.757 289.103 215.85 273.452 214.972 261.728C213.778 245.804 229.548 231.62 245.836 230.109H245.865Z" fill="black" stroke="#1D1D1B" stroke-width="2" stroke-miterlimit="10"/>
<path d="M301.32 309.559C304.932 313.155 294.083 320.492 291.118 321.614C279.737 325.973 275.478 320.305 265.995 319.845C257.837 319.442 253.707 327.239 248.513 331.482C243.836 335.294 236.814 338.79 230.483 338.847C225.749 338.891 213.447 335.625 215.418 329.526C217.231 323.916 225.519 330.159 230.023 330.216C244.182 330.389 247.707 315.874 259.376 312.695C271.046 309.516 279.132 317.6 288.917 313.515C292.082 312.192 297.867 306.121 301.335 309.573L301.32 309.559Z" fill="black" stroke="#1D1D1B" stroke-width="2" stroke-miterlimit="10"/>
<path d="M272.211 355.347C277.161 354.714 288.873 355.88 288.902 362.367C288.917 368.237 282.01 363.921 279.377 363.561C262.973 361.317 266.067 377.213 260.383 386.204C252.541 398.618 234.785 402.1 221.792 394.461C219.044 392.85 215.461 389.023 218.224 386.117C220.828 383.37 223.289 386.376 225.62 387.427C232.771 390.663 240.339 391.814 247.318 387.383C259.419 379.687 252.153 357.894 272.211 355.362V355.347Z" fill="black" stroke="#1D1D1B" stroke-width="2" stroke-miterlimit="10"/>
<path d="M247.98 295.347C252.57 291.045 257.894 288.485 264.571 289.262C268.24 289.693 271.664 291.635 275.075 292.398C281.837 293.908 289.78 292.728 295.392 288.888C297.924 287.147 304.356 280.141 305.119 287.679C305.881 295.16 291.982 300.741 285.478 301.23C274.37 302.064 263.247 293.074 254.498 300.367C247.16 306.481 246.038 312.206 235.318 316.133C231.951 317.37 220.785 320.176 221.13 314.047C221.389 309.487 229.275 309.3 233.001 307.919C241.289 304.855 242.455 300.496 247.966 295.332L247.98 295.347Z" fill="black" stroke="#1D1D1B" stroke-width="2" stroke-miterlimit="10"/>
<path d="M298.557 328.979C301.651 328.418 302.831 331.252 302.27 333.769C301.076 339.149 292.298 343.594 286.888 344.012C278.701 344.645 271.118 339.38 264.01 344.659C255.966 350.614 252.743 359.548 240.225 360.022C235.347 360.209 225.087 357.433 223.965 352.24C222.555 345.695 235.232 351.492 237.462 351.751C250.225 353.319 254.441 335.884 267.592 334.186C276.039 333.108 283.075 338.603 291.435 333.999C293.708 332.748 296.284 329.396 298.572 328.979H298.557Z" fill="black" stroke="#1D1D1B" stroke-width="2" stroke-miterlimit="10"/>
<path d="M276.355 377.803C277.449 377.601 278.657 377.544 279.722 377.918C283.463 379.587 278.499 390.634 277.175 393.238C269.002 409.206 246.296 421.822 227.634 414.485C224.958 413.435 220.152 409.292 222.655 406.645C225.001 404.171 231.202 407.954 234.713 408.3C251.131 409.911 264.427 401.28 270.7 387.599C271.751 385.326 272.743 380.953 273.808 379.27C274.254 378.565 275.549 377.932 276.369 377.774L276.355 377.803Z" fill="black" stroke="#1D1D1B" stroke-width="2" stroke-miterlimit="10"/>
<path d="M260.642 175.201C263.175 174.813 269.491 178.855 271.333 180.567C274.067 183.098 276.787 188.306 277.276 191.859C277.607 194.29 276.873 198.045 277.736 200.059C278.556 201.943 284.801 205.309 286.873 207.064C290.816 210.43 301.305 223.722 292.614 226.715C287.737 228.398 286.945 221.248 285.406 218.371C281.506 211.035 272.297 209.093 269.491 203.871C267.966 201.022 269.276 198.75 268.988 195.7C268.7 192.65 267.117 188.651 264.671 186.35C262.7 184.479 257.174 182.437 256.743 180.336C256.34 178.438 258.469 175.546 260.613 175.215L260.642 175.201Z" fill="black" stroke="#1D1D1B" stroke-width="2" stroke-miterlimit="10"/>
<path d="M223.648 160.528C230.037 159.19 239.404 161.406 243.649 166.282C250.052 173.633 245.894 182.926 252.901 189.169C255.736 191.686 260.11 192.809 259.347 197.34C258.254 203.914 246.383 195.916 244.124 193.053C238.843 186.378 241.116 175 234.656 170.799C230.469 168.08 227.145 169.806 223.188 168.987C219.044 168.109 219.792 161.334 223.648 160.528Z" fill="black" stroke="#1D1D1B" stroke-width="2" stroke-miterlimit="10"/>
<path d="M257.434 248.68C264.067 248.191 280.111 251.989 283.362 257.887C285.003 260.879 283.219 263.9 279.607 263.569C277.218 263.353 270.772 259.239 267.247 258.261C260.772 256.463 253.534 256.463 247.678 259.858C245.433 261.152 236.498 270.762 235.375 263.857C233.908 254.837 249.908 249.241 257.448 248.68H257.434Z" fill="black" stroke="#1D1D1B" stroke-width="2" stroke-miterlimit="10"/>
<path d="M170.035 199.426C174.006 198.893 180.597 200.059 180.812 204.719C181.028 209.395 175.589 207.64 172.28 207.999C166.366 208.632 163.474 212.861 158.438 214.947C150.193 218.371 140.077 217.522 134.624 225.52C132.135 229.189 131.746 234.08 128.998 237.547C123.99 243.847 114.379 243.545 109.961 250.867C105.659 258.017 107.875 269.28 116.35 272.69C126.552 276.79 133.617 268.029 142.624 268.446C145.243 268.561 150.783 269.597 151.2 272.517C152.308 280.141 143.545 276.444 138.581 277.178C135.171 277.681 131.386 280.256 128.048 281.163C106.796 286.888 91.7591 263.138 102.45 246.883C107.242 239.589 111.961 238.769 118.954 234.669C126.134 230.469 123.847 223.593 129.199 218.328C136.422 211.222 147.056 211.797 155.301 207.294C159.733 204.878 164.769 200.159 170.021 199.454L170.035 199.426Z" fill="black" stroke="#1D1D1B" stroke-width="2" stroke-miterlimit="10"/>
<path d="M158.726 286.01C156.351 283.781 157.488 280.357 160.812 279.335C167.503 277.293 170.798 278.026 174.971 271.409C184.093 256.952 171.69 239.647 155.071 238.237C150.193 237.82 146.725 240.567 142.423 238.827C138.351 228.987 152.884 229.332 159.546 230.613C186.295 235.748 198.108 269.798 174.28 284.155C171.071 286.097 161.69 288.787 158.726 286.01Z" fill="black" stroke="#1D1D1B" stroke-width="2" stroke-miterlimit="10"/>
<path d="M122.883 354.916C131.473 353.822 139.013 357.088 143.43 364.007C147.516 370.409 145.574 377.759 150.754 383.945C155.977 390.203 164.136 391.814 172.006 389.138C175.546 387.93 180.122 383.629 183.546 385.714C188.252 388.563 181.676 393.828 178.654 395.353C162.797 403.322 143.559 395.87 138.61 379.759C136.494 372.868 137.329 363.719 126.408 363.489C122.465 363.403 115.343 367.618 113.371 364.05C110.652 359.116 118.71 355.462 122.911 354.93L122.883 354.916Z" fill="black" stroke="#1D1D1B" stroke-width="2" stroke-miterlimit="10"/>
<path d="M102.522 309.113C105.717 308.235 109.803 312.508 112.652 313.731C122.451 317.902 129.516 311.141 138.898 312.105C153.733 313.63 157.718 332.388 173.561 330.59C177.129 330.187 184.77 324.707 187.014 329.353C189.604 334.747 179.215 338.459 175 338.847C166.424 339.653 160.064 337.639 153.733 332.388C149.689 329.037 144.869 321.815 139.56 320.578C131.977 318.823 124.25 324.074 115.89 323.254C110.58 322.736 98.997 317.715 100.537 311.616C100.767 310.724 101.529 309.415 102.522 309.142V309.113Z" fill="black" stroke="#1D1D1B" stroke-width="2" stroke-miterlimit="10"/>
<path d="M100.177 284.529C102.422 284.414 106.781 289.592 109.256 290.959C122.84 298.468 132.955 286.586 145.301 290.542C155.618 293.85 159.416 305.502 170.237 308.71C173.086 309.559 182.813 309.904 180.813 314.867C177.489 323.124 161.172 314.119 156.725 310.552C152.812 307.416 148.092 300.655 143.79 298.885C137.056 296.109 128.653 301.359 121.386 301.705C113.4 302.079 100.767 298.281 97.4718 290.758C96.4358 288.398 96.8962 284.701 100.177 284.543V284.529Z" fill="black" stroke="#1D1D1B" stroke-width="2" stroke-miterlimit="10"/>
<path d="M102.047 328.979C105.832 327.886 107.011 331.425 109.429 333.137C117.731 339.006 124.307 333.41 132.926 334.086C147.185 335.194 151.171 352.398 162.51 351.78C166.035 351.593 172.381 348.529 174.956 348.759C176.784 348.932 178.424 350.255 178.496 352.01C178.712 357.102 166.409 360.224 162.136 360.253C145.804 360.353 142.682 341.71 129.746 341.897C125.602 341.955 120.163 344.055 115.832 344.041C110.062 344.026 98.6947 338.186 99.9609 331.813C100.119 331.036 101.213 329.224 102.047 328.979Z" fill="black" stroke="#1D1D1B" stroke-width="2" stroke-miterlimit="10"/>
<path d="M124.249 377.328C128.739 376.681 130.84 386.52 132.307 389.512C137.89 400.948 150.984 409.407 164.769 408.314C167.747 408.069 175.92 405.523 177.661 405.854C182.654 406.803 180.079 411.824 176.467 413.636C158.394 422.742 132.753 409.867 124.753 393.554C123.228 390.433 117.933 378.248 124.249 377.342V377.328Z" fill="black" stroke="#1D1D1B" stroke-width="2" stroke-miterlimit="10"/>
<path d="M144.135 175.675C145.128 176.596 145.516 179.07 144.941 180.293C144.25 181.803 138.94 184.479 137.314 186.119C131.027 192.449 135.142 198.922 131.703 204.633C128.969 209.179 122.393 210.876 118.853 215.091C116.263 218.155 115.717 222.097 113.544 224.815C109.716 229.591 106.047 226.772 106.364 221.579C106.695 216.04 112.148 209.898 116.522 206.445C119.026 204.46 123.846 202.677 124.35 199.512C125.516 192.276 124.35 188.219 129.933 181.847C132.264 179.185 140.552 172.367 144.12 175.69L144.135 175.675Z" fill="black" stroke="#1D1D1B" stroke-width="2" stroke-miterlimit="10"/>
<path d="M169.574 160.542C173.632 160.024 181.215 159.708 182.064 164.642C183.273 171.575 175.114 168.368 170.51 169.619C159.56 172.582 164.121 185.198 158.322 192.348C156.034 195.182 144.236 204.733 142.509 197.699C141.315 192.866 145.07 192.348 147.962 190.017C153.948 185.198 152.308 180.12 154.207 173.82C156.351 166.699 161.473 161.563 169.574 160.542Z" fill="black" stroke="#1D1D1B" stroke-width="2" stroke-miterlimit="10"/>
<path d="M156.581 260.793C150.984 256.247 141.041 256.29 134.422 258.592C131.962 259.441 123.443 264.174 121.861 264.102C117.515 263.886 117.702 258.261 120.206 255.686C129.861 245.746 155.085 246.494 164.351 257.197C166.956 260.203 169.172 266.72 162.97 266.303C159.747 266.087 158.596 262.462 156.567 260.807L156.581 260.793Z" fill="black" stroke="#1D1D1B" stroke-width="2" stroke-miterlimit="10"/>
</svg>
