<svg width="286" height="204" viewBox="0 0 286 204" fill="none" xmlns="http://www.w3.org/2000/svg">
<path d="M104.868 11.0224C96.7563 16.7653 90.1364 26.8814 88.023 35.9081C87.821 36.7641 88.0852 39.9235 87.9143 40.0635C87.4791 40.4838 77.4716 37.2933 75.5292 37.0443C50.6969 33.8538 34.3958 51.7205 33.5878 72.5442C33.5411 73.8826 34.6911 80.2169 34.3492 80.5282C34.0073 80.8394 26.6726 81.6799 24.4816 82.4113C-3.25666 91.6092 -9.08401 126.393 15.6084 141.661C16.1989 142.034 18.188 141.957 18.3745 142.579C18.4056 142.704 17.2712 143.964 17.2401 144.96C15.4375 191.277 82.7085 197.938 109.887 164.959C131.876 138.268 127.836 97.7412 82.7862 98.8617C57.006 99.4998 43.3933 132.665 66.1277 141.007C75.5603 144.462 84.9462 137.147 79.1344 129.708C78.4195 128.806 74.69 127.825 76.7879 127.171C81.1856 125.802 85.9718 131.872 85.8009 135.327C85.0083 151.466 51.2874 153.349 45.1182 133.63C34.5978 100.045 84.5888 80.746 112.809 100.932C137.206 118.394 132.544 160.555 109.281 176.725C106.033 178.982 100.921 180.04 98.9318 181.347C98.5589 181.596 99.0872 182.717 98.2015 183.044C109.048 191.261 120.081 202.934 135.372 203.743C151.86 204.614 166.327 201.424 177.609 190.187C178.79 189.02 182.986 182.904 183.483 182.873C183.856 182.841 187.943 186.312 189.403 187.09C201.182 193.3 219.97 194.389 232.666 190.156C269.153 178.017 256.737 124.043 223.932 140.852C220.374 142.672 218.991 146.299 218.618 146.47C215.541 147.839 214.515 141.536 217.282 138.299C223.56 131.016 239.969 130.377 247.957 135.591C248.967 136.245 251.702 139.56 251.966 139.684C253.582 140.4 263.76 135.529 265.703 134.362C302.283 112.153 286.231 52.4831 241.741 65.992C220.125 72.5597 213.614 98.5972 236.784 105.896C242.782 107.78 254.996 106.332 256.037 99.5932C257.094 92.7765 247.63 96.216 243.808 93.8348C242.891 93.2589 241.135 89.4304 241.213 88.6833C241.539 85.5862 257.249 81.0106 260.249 92.3874C266.604 116.479 215.168 125.117 213.024 92.3251C212.169 79.2208 222.829 63.2529 236.861 58.9263C244.522 56.5607 249.728 60.0157 249.977 50.5844C250.661 25.9476 209.108 12.6254 188.207 28.3132C180.328 34.2273 183.39 36.8264 180.204 43.9232C176.024 53.2145 160.982 60.467 150.088 59.7356C118.465 57.5878 128.613 24.438 149.187 27.9086C154.113 28.7335 156.848 36.8575 155.543 37.6824C154.16 38.5539 148.628 34.4452 145.504 34.4608C131.456 34.5697 130.835 53.5881 149.296 53.6814C181.96 53.8682 185.083 17.6368 158.884 4.23681C142.427 -4.18294 119.102 0.921827 104.868 11.0069V11.0224Z" fill="#8984B9"/>
</svg>
