<svg width="255" height="181" viewBox="0 0 255 181" fill="none" xmlns="http://www.w3.org/2000/svg">
<path d="M63.0712 7.26952C51.0234 14.8865 36.3409 33.8968 36.2346 48.6187C36.0222 72.5363 59.6077 90.4159 82.0458 78.7024C94.3698 72.2589 95.5172 56.4489 84.1282 48.5119C96.8983 49.8774 104.718 69.7839 97.5358 80.1319C82.9595 101.126 44.1177 93.7015 33.7061 71.5761C32.58 69.2078 30.6464 59.1799 30.1577 58.7105C29.9664 58.5185 25.2281 57.7078 24.9731 57.7291C-3.77576 59.5213 -11.0002 111.09 20.9147 124.532C22.1896 125.065 26.6942 125.471 27.0342 125.919C27.5866 126.666 26.5455 131.53 26.6942 133.088C29.8389 166.436 64.8985 174.544 91.6925 162.425C92.4362 162.083 95.071 159.63 95.2835 159.715C95.411 159.758 95.9209 161.721 96.3884 162.297C106.928 175.29 121.61 182.865 138.885 180.603C152.611 178.811 173.392 162.275 173.009 146.935C189.371 153.805 207.942 152.973 223.177 143.905C258.831 122.676 241.301 71.6402 202.268 90.3518L194.916 98.9075C193.025 73.3043 225.663 72.9843 240.281 85.6152C243.83 88.6876 247.251 97.5421 251.479 88.7516C267.522 55.2755 225.471 6.77876 191.347 25.7678C190.327 26.3438 186.587 30.6324 186.12 30.5684C185.588 30.5044 181.084 23.4849 179.766 22.1621C166.869 9.3178 149.084 5.32791 132.978 15.0998C132.085 15.6332 127.751 20.2845 127.39 20.1565C127.028 20.0285 124.054 15.3985 122.927 14.3957C105.738 -0.816825 82.917 -5.23334 63.0924 7.29088L63.0712 7.26952Z" fill="#8984B9"/>
</svg>
