<svg width="632" height="325" viewBox="0 0 632 325" fill="none" xmlns="http://www.w3.org/2000/svg">
<path d="M631.585 325C632.313 324.368 626.17 317.065 625.378 316.243C616.828 307.265 605.682 301.828 593.237 300.943C574.807 299.647 545.769 313.999 529.556 304.009C523.159 300.058 524.458 287.096 527.276 281.027C536.776 260.636 566.922 241.669 573.192 223.365C579.05 206.231 564.04 189.539 547.986 203.291C528.258 220.204 516.129 262.849 497.193 284.504C478.256 306.159 452.702 297.971 452.005 268.413C451.372 240.783 476.356 199.371 494.311 178.854C514.356 155.935 559.227 124.227 562.109 92.7405C563.502 77.4083 553.084 71.1173 540.671 80.8225C521.449 95.8702 506.154 128.937 484.273 140.413C471.385 147.178 467.363 133.964 467.458 123.626C467.807 90.3379 481.835 69.6948 499.568 44.1516C506.249 34.5097 514.103 19.62 507.579 8.11294C499.125 -6.80832 483.355 5.01488 474.551 12.6336C443.803 39.2832 426.387 90.7173 428.54 130.739C429.712 152.678 441.682 182.869 428.889 202.437C423.569 210.593 417.774 215.209 408.369 209.929C381.991 195.166 389.717 145.091 380.028 120.149C372.459 100.707 347.665 97.3244 341.901 119.264C337.658 135.323 338.798 162.542 343.516 178.475C350.831 203.069 368.438 218.781 379.299 240.404C383.004 247.802 391.934 266.485 376.386 265.947C359.698 265.378 335.156 242.08 320.716 232.533C311.47 226.4 304.978 222.859 294.275 229.182C273.407 241.479 294.782 269.235 306.245 280.521C312.642 286.812 336.518 303.978 338.418 310.363C338.798 311.596 338.861 312.766 338.766 314.03C336.708 316.117 320.685 306.412 317.36 305.147C308.968 301.954 293.863 299.299 286.897 306.348C284.459 308.814 282.274 314.473 282.59 317.95C282.685 318.899 285.092 324.968 285.472 324.968H631.585V325Z" fill="#00B2AC"/>
<path d="M0 325H148.958C159.345 308.878 143.923 296.233 128.122 295.126C116.532 294.304 87.5574 300.5 76.2842 304.578C67.3859 307.803 51.1411 316.497 41.9895 314.789C39.0129 314.252 40.2796 311.375 40.8496 309.289C44.1745 297.592 55.9227 287.982 63.491 278.688C91.0723 244.799 124.955 198.707 120.459 152.616C119.255 140.16 110.42 127.009 98.1656 139.085C84.4541 152.616 73.1492 193.112 65.296 211.984C58.6144 228.075 49.9061 244.04 36.8279 255.737C34.453 255.768 34.833 238.571 35.0229 236.453C36.5429 217.074 49.8745 179.044 38.5379 162.953C30.938 152.173 19.6648 152.71 15.2632 165.703C6.90326 190.456 19.9814 218.655 5.66827 243.597C4.84495 245.051 0 251.248 0 251.753V325Z" fill="#00B2AC"/>
</svg>
