<svg width="195" height="165" viewBox="0 0 195 165" fill="none" xmlns="http://www.w3.org/2000/svg">
<path d="M169.489 0C178.897 5.70238 189.885 16.8603 193.144 27.5739C196.404 38.2874 195.86 53.1729 181.045 51.519C166.23 49.865 162.797 23.4267 146.105 21.8962C141.068 21.4271 135.66 27.4751 134.253 31.9926C129.734 46.4337 137.883 53.9381 142.377 65.3429C144.722 71.2675 144.722 83.2894 143.167 89.4361C141.611 95.5828 136.031 103.68 128.623 102.199C115.857 99.6313 118.647 76.5255 117.388 67.2437C116.005 57.0238 108.77 51.6671 105.832 64.553C101.881 81.7589 102.597 100.717 95.3131 117.405C88.4487 133.13 73.6333 156.26 56.966 162.58C43.5086 167.665 20.9151 163.888 23.2609 145.473C26.1499 122.811 61.534 102.791 73.2135 82.3266C77.7322 74.4272 81.7076 61.6154 79.9298 52.6051C78.6211 45.94 73.732 50.1859 71.4603 53.9381C62.6946 68.4039 56.6696 97.3355 35.8787 99.4832C22.8905 100.816 18.6188 91.6085 22.0016 80.2777C29.3599 55.6661 58.0277 47.3718 54.5461 17.6009C53.1633 5.87519 42.8913 4.6409 33.928 9.89895C25.6067 14.762 22.3226 21.4765 16.1248 27.6479C6.71704 37.0038 -1.08577 34.634 0.124159 20.5138C0.815544 12.2194 6.42075 6.1961 11.3592 0.0740569H169.514L169.489 0Z" fill="#00B2AC"/>
</svg>
