<svg width="276" height="200" viewBox="0 0 276 200" fill="none" xmlns="http://www.w3.org/2000/svg">
<g clip-path="url(#clip0_377_70)">
<path d="M103.372 113.332C119.356 140.787 159.375 136.636 168.268 105.636C174.852 82.6902 151.766 67.3856 131.12 68.8272C109.394 70.3447 91.241 92.4994 103.372 113.343L103.372 113.332Z" fill="#E26932"/>
<path d="M83.6537 179.785C93.2915 171.331 92.0503 165.261 98.5907 156.959C103.674 150.509 119.226 142.662 116.593 132.354C111.391 126.956 112.006 132.322 110.84 135.465C108.455 141.914 94.4895 145.318 89.1147 150.314C84.5386 154.574 84.3228 159.733 81.0742 164.6C75.3217 173.217 66.6229 172.924 58.8738 177.661C54.2761 180.468 41.9833 192.543 50.326 197.084C56.7044 200.553 62.1763 193.052 66.4286 190.202C72.7639 185.964 77.0594 185.573 83.6429 179.796L83.6537 179.785Z" fill="#E26932"/>
<path d="M170.351 116.963C171.02 117.917 178.629 119.575 180.788 120.919C189.368 126.274 185.817 135.042 200.473 138.316C214.417 141.427 209.248 142.521 218.832 150.043C228.621 157.728 236.003 152.764 245.673 157.143C251.253 159.668 259.574 166.486 266.136 163.505C274.565 159.69 258.991 149.447 255.634 147.919C247.076 144.028 237.535 146.64 230.347 143.93C223.807 141.47 219.414 134.891 212.842 132.138C208.73 130.414 205.125 130.588 201.348 129.384C195.627 127.564 192.077 119.716 185.644 116.54C183.324 115.391 175.003 113.462 172.564 113.701C171.128 113.841 169.196 115.305 170.362 116.963L170.351 116.963Z" fill="#E26932"/>
<path d="M17.1281 166.844C18.2721 169.413 22.8913 169.423 25.2765 168.871C29.9281 167.776 36.2526 161.489 40.7855 160.275C43.257 159.614 45.6638 160.438 47.9302 160.167C55.8736 159.246 61.788 155.777 67.2491 150.184C75.0198 142.228 73.5951 138.652 85.6829 134.37C89.4495 133.037 92.7089 132.983 96.5834 131.021C97.7814 130.403 103.955 126.122 104.225 125.157C105.531 120.355 96.4539 125.667 95.2128 126.003C91.4677 127 87.6256 126.382 83.4164 127.672C74.2643 130.479 68.2204 136.722 61.0325 142.109C51.3731 149.339 36.0152 146.965 24.7585 153.252C19.8586 155.983 14.268 160.395 17.1497 166.855L17.1281 166.844Z" fill="#E26932"/>
<path d="M173.967 93.0522C178.705 94.613 183.594 92.7596 188.278 93.0956C191.148 93.3015 195.142 94.884 197.581 94.7864C201.488 94.6239 207.294 91.0253 210.284 91.318C212.701 91.5564 216.651 93.9193 220.364 94.2553C228.685 95.0032 234.125 90.6893 241.766 91.1771C251.544 91.8057 257.027 93.3124 266.416 87.6002C269.136 85.9419 273.334 82.5601 272.784 78.9616C272.503 77.0756 269.751 76.0784 268.089 76.1001C264.085 76.1543 261.408 78.8315 258.138 80.349C250.26 83.9909 246.342 79.7962 238.755 80.6416C235.02 81.0644 233.866 83.0154 230.908 84.2076C222.544 87.5894 213.975 80.0455 204.564 83.2321C201.93 84.1209 197.915 87.2642 195.239 87.6436C193.221 87.9254 188.342 85.8552 185.666 85.8335C182.234 85.801 172.304 88.0013 173.956 93.0631L173.967 93.0522Z" fill="#E26932"/>
<path d="M174.506 104.726C177.485 107.75 187.263 106.937 191.515 108.313C194.785 109.376 197.797 112.963 201.067 114.318C210.91 118.394 218.918 110.373 228.502 116.93C236.909 122.686 237.697 125.363 249.364 124.561C251.943 124.387 256.098 123 258.149 123.043C263.437 123.152 267.647 128.29 273.561 124.42C278.655 121.092 274.824 115.771 270.787 113.971C260.372 109.321 252.591 116.573 243.126 115.261C236.866 114.394 230.531 108.075 223.893 106.525C217.256 104.975 209.377 108.237 203.085 106.828C198.757 105.864 193.846 101.539 189.001 100.498C185.094 99.6639 180.539 100.802 176.514 100.293L174.042 101.962L174.506 104.726Z" fill="#E26932"/>
<path d="M163.12 128.387C164.415 129.959 167.998 131.747 169.52 133.276C175.941 139.746 174.042 151.68 181.349 156.232C190.976 162.237 189.022 157.652 194.138 169.077C198.325 178.431 200.743 183.048 210.24 188.066C213.575 189.833 224.53 194.613 224.357 187.091C224.249 182.322 213.144 177.206 209.927 174.344C202.308 167.57 204.974 159.148 194.688 151.615C188.472 147.052 186.605 149.003 182.838 140.96C182.395 140.007 182.212 137.882 181.737 136.874C178.262 129.59 171.624 127.043 164.652 124.106C161.533 124.572 161.307 126.198 163.12 128.398L163.12 128.387Z" fill="#E26932"/>
<path d="M168.128 74.3009C169.002 73.6506 170.124 71.537 170.891 70.8324C175.208 66.8871 180.755 67.3315 185.288 63.5812C186.68 62.4323 187.749 60.2536 189.055 59.0397C194.019 54.3898 202.805 53.5335 209.107 48.7644C213.36 45.5452 217.601 38.5758 221.562 36.3213C227.066 33.178 237.708 32.1158 240.849 25.7858C244 19.4451 240.417 15.4021 233.769 16.8546C229.905 17.7 227.466 23.7156 224.271 26.2953C220.548 29.3085 215.68 29.0809 211.719 33.178C209.712 35.2482 207.64 39.6055 205.449 41.2096C200.463 44.8624 191.872 44.9816 186.993 49.1654C183.917 51.8101 182.46 56.666 179.622 59.1806C174.96 63.3102 167.038 64.0473 164.48 71.2985C163.357 74.4635 164.987 76.6529 168.149 74.3117L168.128 74.3009Z" fill="#E26932"/>
<path d="M169.833 82.1159C171.085 83.384 174.495 79.9373 176.352 79.5687C182.255 78.4198 188.601 79.9047 193.933 79.3086C198.239 78.8317 202.621 75.1898 206.215 74.1493C213.889 71.9164 218.022 75.1573 225.545 69.1742L233.51 61.5544C235.959 60.8716 238.679 61.4569 241.086 61.11C247.087 60.2321 262.25 55.7773 263.74 49.0138C262.553 48.6453 263.783 48.6669 263.761 48.4935C263.556 46.8026 262.574 45.0576 260.761 44.7649C254.361 43.7135 249.569 51.084 243.881 52.2113C238.884 53.2084 233.207 53.1217 228.469 55.7231C224.983 57.6416 221.951 63.5488 217.472 64.7302C212.96 65.9334 207.553 63.6572 202.632 65.1204C198.995 66.2043 195.638 70.2581 192.087 71.6888C187.975 73.3472 182.417 72.9461 178.273 74.1926C176.535 74.7129 167.135 79.3411 169.844 82.105L169.833 82.1159Z" fill="#E26932"/>
<path d="M10.6525 55.5712C13.1888 59.0722 18.4448 58.2701 21.6718 59.4299C23.4742 60.0802 25.4276 62.1722 27.4567 62.9959C32.3565 64.9578 38.3248 64.134 43.9262 66.4861C48.7397 68.5021 51.3947 72.48 56.6939 74.2034C60.331 75.3848 64.2811 75.2331 67.9075 76.4579C74.1888 78.5715 76.7682 84.1643 81.9595 86.2671C85.521 87.7087 92.8384 89.0961 95.6877 85.8986L95.1481 83.5574C91.5649 82.4843 87.291 81.4221 84.0532 79.4928C79.8873 77.0215 77.0488 72.3282 72.8721 69.922C68.0154 67.1255 63.1263 67.4832 58.5394 65.8574C55.4204 64.7518 50.963 59.6142 45.7825 58.1292C42.7282 57.2513 37.742 57.7065 35.1734 56.5576C33.6408 55.8747 30.1116 52.2979 28.1258 51.149C24.5642 49.0679 12.919 44.6781 10.2316 49.2521C9.36821 50.7262 9.64882 54.2055 10.6417 55.5712L10.6525 55.5712Z" fill="#E26932"/>
<path d="M92.547 98.3634L91.6404 97.2578C89.633 96.7918 87.6471 98.0816 85.7476 98.0599C78.8943 97.9515 74.2534 90.4402 67.7563 89.0528C59.079 87.1993 53.4129 93.009 46.1494 92.5754C41.5086 92.3045 35.7237 86.2455 29.3237 85.8336C24.0677 85.4976 22.3517 87.5028 18.1857 87.9039C13.3182 88.3699 5.86053 84.7497 1.85646 88.1423C-1.00358 90.5594 -0.517915 94.7215 2.93573 96.4558C12.2498 101.117 20.981 95.1876 29.0647 95.6754C31.5362 95.8271 34.9251 97.9949 37.4182 98.5043C49.2901 100.943 60.4389 93.8869 70.4113 97.3229C75.1384 98.9487 76.617 101.875 82.3803 102.049C84.215 102.103 93.0542 101.127 92.5362 98.3634L92.547 98.3634Z" fill="#E26932"/>
<path d="M8.82843 129.417C11.4295 130.793 16.6099 127.899 19.1354 127.336C31.5361 124.55 38.4434 131.216 52.204 124.929C55.744 123.314 60.8813 118.816 64.4753 117.754C69.3427 116.323 75.3758 118.578 80.5563 118.589C85.7259 118.589 94.3169 118.339 96.497 112.746C95.4285 109.332 92.8059 112.194 90.6582 112.584C79.6389 114.589 73.7677 108.422 63.5687 109.809C55.172 110.958 49.3764 118.35 40.4185 119.586C34.9574 120.334 31.8275 118.123 26.7442 117.797C20.5276 117.386 7.66283 118.014 6.77783 126.133C6.87497 127.086 8.00819 128.983 8.82843 129.417Z" fill="#E26932"/>
<path d="M154.356 140.819C161.501 149.274 156.385 155.929 159.321 164.546C160.605 168.318 167.62 171.57 169.088 174.767C170.426 177.694 170.308 182.17 171.182 185.151C173.178 191.99 186.961 206.991 192.519 196.217C192.562 189.974 187.166 189.638 184.435 186.148C181.251 182.072 180.82 175.472 178.305 171.038C175.866 166.746 169.962 163.906 168.203 159.235C167.135 156.406 167.458 153.544 166.865 150.759C165.926 146.358 163.023 141.578 159.85 138.435C159.083 137.676 151.928 131.997 151.388 131.953C150.557 131.877 149.942 132.387 149.575 133.015C147.913 135.899 152.867 139.053 154.367 140.819L154.356 140.819Z" fill="#E26932"/>
<path d="M41.3143 27.6611C47.0344 31.1729 48.1353 35.5193 52.7869 38.8685C55.8844 41.1014 60.4928 42.1961 63.2557 44.4723C66.3856 47.0519 67.8318 52.3847 71.933 55.7773C76.6386 59.6685 78.8295 58.3894 83.438 60.3405C88.381 62.4324 89.0933 68.5781 93.0542 71.4829C93.8744 72.079 101.688 75.6992 102.444 75.8293C103.253 75.9702 105.433 75.3849 105.951 74.6262C107.905 71.7755 99.1952 69.1742 98.116 68.3179C95.8603 66.5403 93.5399 60.3296 91.7591 58.086C88.435 53.8696 82.0025 53.6203 78.5057 50.4662C76.3364 48.5043 75.3651 45.0359 72.818 42.6513C70.0443 40.05 66.8605 39.2696 64.0544 37.427C56.478 32.4302 50.7363 19.0658 40.5696 16.291C35.033 14.7844 31.3203 18.1879 35.0546 23.6507C37.1592 26.7289 39.0802 26.2845 41.3143 27.6611Z" fill="#E26932"/>
<path d="M64.756 9.80936C66.0187 11.2618 69.2241 12.7034 70.4653 14.34C72.7641 17.3533 72.4835 21.3312 75.9371 24.7021C78.7216 27.4226 87.2694 31.3572 88.6508 34.4246C89.374 36.0179 89.2013 39.9849 89.7301 42.0552C91.8671 50.3578 97.4037 51.6151 103.998 55.5496C105.012 58.6713 106.135 61.9229 107.84 64.0582C109.006 65.5106 113.668 70.5941 115.535 68.6539C116.96 67.1798 112.395 63.1044 111.866 61.4352C111.186 59.2674 111.434 56.0591 110.215 53.8046C108.995 51.5501 102.757 48.5477 100.825 45.968C97.7382 41.8601 98.1915 36.885 96.5295 32.6361C93.8421 25.7859 84.6468 22.4476 82.1537 15.8792C81.5925 14.3942 81.4198 11.6953 80.783 10.2429C79.0886 6.39509 71.6417 -0.736916 67.2059 0.0760038C66.0079 0.292785 62.878 3.15426 62.6622 4.38989C62.3708 6.06993 63.6875 8.58457 64.7667 9.83104L64.756 9.80936Z" fill="#E26932"/>
<path d="M165.537 61.0341C172.488 54.1297 170.804 55.5821 174.29 47.0844C177.172 40.0716 185.158 38.229 189.691 32.3868C194.138 26.653 192.799 19.8353 198.617 14.0582C201.088 11.5977 207.65 8.69291 205.783 3.98881C204.326 0.325254 199.858 1.13818 197.127 2.87241C195.94 3.63113 187.986 11.0883 187.209 12.2264C185.299 15.0445 185.46 18.849 184.414 21.9056C181.089 31.6064 171.538 30.6418 168.645 40.115C167.987 42.2719 168.106 46.1631 167.545 47.8431C166.044 52.3521 159.418 56.3842 158.069 60.7198C157.54 62.4107 156.482 69.3259 158.727 69.7269C163.152 70.5182 161.781 65.3155 162.861 63.1911C163.681 61.5761 164.749 61.7928 165.516 61.045L165.537 61.0341Z" fill="#E26932"/>
<path d="M104.106 197.8C105.908 202.276 112.956 198.233 115.125 195.935C122.237 188.37 120.705 175.461 121.514 165.977C128.292 157.782 133.451 151.268 129.317 139.844C128.53 137.665 125.41 137.427 124.525 139.595C123.425 142.261 125.281 148.027 124.007 151.29C123.133 153.534 117.402 157.446 115.665 159.809C110.473 166.876 113.571 172.036 111.704 179.233C110.409 184.208 102.206 193.074 104.106 197.8Z" fill="#E26932"/>
<path d="M137.239 187.156C137.541 191.275 138.923 199.436 144.265 199.48C151.129 199.534 147.363 187.925 147.557 184.5C147.848 179.265 150.158 174.745 149.554 168.426C148.83 160.904 144.405 155.203 144.395 147.605C144.395 144.277 147.017 135.519 140.887 135.487C136.915 135.465 139.171 140.451 138.966 142.651C138.621 146.25 136.829 149.23 137.39 153.577C137.692 155.918 140.768 159.571 141.373 161.294C143.823 168.231 136.592 178.441 137.228 187.156L137.239 187.156Z" fill="#E26932"/>
<path d="M108.509 29.3193C108.617 29.5686 109.135 29.3193 109.211 30.5657C109.33 32.3433 108.013 34.9013 108.293 37.5135C109.265 46.3256 115.989 47.6913 118.611 53.0891C120.468 56.9044 119.636 62.584 123.943 65.1853L125.4 64.0906C125.885 62.6815 124.817 61.1857 124.828 60.2211C125.011 49.729 124.267 53.2841 119.572 45.3717C114.985 37.6327 119.172 34.2618 116.874 27.2599C116.118 24.9512 113.021 22.7292 112.006 20.1821C110.398 16.1391 111.423 11.1424 110.063 7.05611C108.704 2.96983 101.98 -0.888832 98.9794 3.65268C97.3065 7.25121 101.526 9.77668 101.796 12.7465C101.904 13.9063 101.289 15.3154 101.386 16.8003C101.85 23.5421 106.383 24.4634 108.477 29.3193L108.509 29.3193Z" fill="#E26932"/>
<path d="M128.432 9.82C128.777 13.9713 132.62 19.1849 131.778 23.1085C130.742 27.9752 128.443 29.07 129.144 35.2265C129.522 38.4998 131.53 40.104 132.199 42.8246C133.17 46.7808 131.94 50.8996 132.49 54.7474C132.76 56.6117 135.685 66.6485 138.717 63.2668C139.149 62.5731 139.505 61.8361 139.505 60.9798C139.505 59.6249 138.243 56.4383 138.167 55.5386C137.919 52.4821 139.322 49.1328 139.397 46.4773C139.495 43.1281 137.994 39.7246 137.692 36.7548C137.163 31.4979 140.628 26.8913 140.509 21.7212C140.433 18.7079 139.138 16.1391 138.782 13.3318C138.297 9.51652 139.592 1.41983 134.832 0.184192C129.123 -1.2899 128.119 5.88547 128.443 9.82L128.432 9.82Z" fill="#E26932"/>
<path d="M154.076 54.4656C154.874 53.0457 157.141 51.1164 157.777 49.2196C159.051 45.426 156.903 41.99 157.702 38.76C158.242 36.6031 161.134 34.6521 162.127 32.2567C164.329 26.9348 160.853 23.6722 160.961 18.8814C161.08 13.798 166.185 8.14004 161.717 3.79363C151.593 0.151748 151.874 10.8931 152.996 17.7542C153.104 18.4045 154.453 20.8108 154.486 20.9842C155.554 27.661 150.762 30.2731 150.374 36.5706C150.158 40.0282 151.064 41.1988 151.367 44.1036C152.165 51.8535 143.315 57.1862 147.438 65.478L148.96 66.3018C152.467 65.814 150.805 63.4836 151.118 61.7711C151.55 59.4732 152.932 56.5142 154.076 54.4548L154.076 54.4656Z" fill="#E26932"/>
</g>
<defs>
<clipPath id="clip0_377_70">
<rect width="200" height="276" fill="white" transform="translate(0 200) rotate(-90)"/>
</clipPath>
</defs>
</svg>
