<svg width="267" height="244" viewBox="0 0 267 244" fill="none" xmlns="http://www.w3.org/2000/svg">
<path d="M83.9201 226.401C90.0018 199.949 124.02 214.383 141.555 206.371C154.258 200.575 155.111 191.511 163.125 182.704C167.871 177.504 184.297 167.617 184.098 160.4C183.899 152.9 179.523 145.74 171.196 149.575C164.375 152.729 156.503 172.106 150.194 178.612C136.61 192.591 120.695 195.318 102.165 191.682C90.5986 189.409 80.1687 183.044 69.3694 192.392C65.3906 195.83 62.3782 202.961 57.5753 205.092C41.831 212.081 33.3336 196.739 36.7155 182.76C40.8079 165.912 59.6783 156.82 75.8774 157.275C89.2345 157.673 109.441 168.952 120.979 164.691C127.288 162.361 136.723 154.292 132.347 146.905C125.27 134.943 104.581 140.484 92.9574 136.847C85.1421 134.404 80.4245 127.812 73.2344 124.63C62.634 119.914 50.7831 121.988 39.9269 116.845C22.8184 108.776 6.30676 92.4963 0.736572 74.0571C-1.90643 65.3347 2.64066 54.5098 13.1274 56.2429C34.4419 59.7375 31.4011 88.6607 48.0264 95.5079C59.9341 100.395 70.3072 94.7408 82.8401 97.3263C93.8953 99.5992 102.449 108.094 113.164 110.68C133.768 115.652 124.844 96.7012 115.011 89.4846C105.49 82.4954 94.5489 86.7571 84.9716 76.6709C79.6003 70.9886 77.2699 64.1414 73.007 58.2886C67.5221 50.731 57.2059 49.4241 49.6747 44.3952C37.6533 36.3547 29.9232 16.4665 49.561 13.2844C72.325 9.61924 86.9609 45.7021 102.791 56.9532C107.906 60.5899 124.105 69.2271 128.624 62.0105C134.45 52.7198 117.569 48.4865 112.51 45.0203C101.37 37.3775 89.405 9.7613 105.32 1.46507C116.148 -4.16046 123.537 7.63042 126.776 16.2392C129.306 23.0012 129.022 30.5303 135.274 34.8489C142.265 39.6789 148.233 38.9686 154.77 46.4977C160.851 53.487 161.903 59.1125 161.903 68.0622C161.903 79.5405 157.015 83.5466 162.613 95.5363C166.99 104.941 176.113 102.44 181.285 95.1954C189.867 83.1772 183.274 68.3747 193.562 56.4702C203.225 45.276 221.129 45.3612 225.477 60.6467C231.502 81.8987 207.431 88.4334 206.805 106.049C206.294 120.283 225.164 124.516 232.951 114.43C237.527 108.52 236.759 103.037 239.09 97.0137C243.665 85.1945 255.971 88.4902 260.632 98.4059C263.729 105.026 262.82 121.107 257.165 126.249C245.058 137.216 229.711 128.096 219.395 137.358C212.376 143.666 211.324 151.82 215.843 160.116C223.004 173.271 250.628 174.294 261.456 189.806C267.907 199.069 269.84 217.906 261.058 226.173C250.799 235.805 241.335 224.753 235.822 215.775C229.541 205.575 228.006 192.023 213.882 189.892C190.436 186.34 195.466 218.559 182.592 229.498C164.603 244.783 142.492 228.02 122.229 235.777C114.499 238.732 110.776 242.936 101.682 243.817C90.3997 244.925 80.9929 239.072 83.9201 226.429V226.401Z" fill="#09B3AD"/>
</svg>
