<svg width="850" height="448" viewBox="0 0 850 448" fill="none" xmlns="http://www.w3.org/2000/svg">
<g clip-path="url(#clip0_20_466)">
<path d="M736.031 346.839C727.307 355.561 702.631 351.856 691.584 348.905C667.35 342.449 646.723 327.584 627.821 311.75C621.435 306.392 609.132 292.196 601.05 291.612C593.951 291.099 593.038 297.897 595.191 303.285C602.133 320.715 640.251 326.173 655.504 336.677C670.472 346.981 678.17 358.54 698.455 360.051C731.341 362.488 749.602 338.772 784.968 350.673C796.258 354.478 800.364 360.307 813.778 359.324C818.81 358.953 824.911 356.473 829.658 356.388C856.172 355.96 853.207 391.448 825.225 395.994C793.507 401.154 777.784 378.977 753.279 379.49C736.758 379.832 743.771 390.707 751.783 397.548C762.517 406.726 772.837 404.061 785.325 407.253C798.126 410.517 814.191 419.282 809.33 434.874C804.398 450.694 770.628 447.843 758.44 443.497C734.263 434.86 722.389 415.306 703.472 400.427C691.013 390.636 686.851 393.315 672.681 390.849C662.803 389.139 649.859 382.227 641.919 376.198C634.521 370.569 623.231 356.274 613.993 355.775C601.691 355.105 605.868 369.827 610.886 376.241C626.752 396.522 647.92 392.602 667.578 404.603C679.182 411.686 691.199 426.636 682.118 440.29C672.411 454.884 650.044 445.264 639.367 436.427C633.822 431.838 629.674 424.826 624.086 420.722C616.773 415.349 606.738 413.553 598.954 409.078C589.318 403.534 574.236 386.517 569.66 376.383C563.103 361.875 563.188 341.594 551.784 330.107C546.168 324.449 530.858 315.043 528.876 328.126C526.382 344.544 552.739 359.309 559.824 373.234C561.905 377.324 562.604 381.785 565.17 385.918C570.644 394.726 584.571 399.386 579.738 412.142C578.513 415.377 575.305 417.8 572.155 418.983C552.397 426.408 530.972 403.534 524.757 386.688C520.908 376.298 516.902 358.44 508.478 351.058C503.916 347.053 496.403 344.502 491.599 340.554C486.097 336.036 479.582 325.404 477.487 318.62C475.249 311.337 474.08 291.911 464.715 289.546C458.713 288.035 456.917 298.909 457.416 303.37C458.898 316.596 468.421 321.556 474.052 331.418C478.171 338.644 478.855 347.879 483.417 355.219C489.561 365.11 503.246 369.628 511.058 378.764C521.92 391.491 522.561 406.284 538.142 416.56C545.683 421.534 558.114 424.484 558.114 435.359C558.114 451.406 535.548 448.713 525.883 442.499C511.599 433.306 511.884 417.8 502.334 406.94C496.945 400.812 492.184 402.337 492.669 410.831C493.296 421.919 511.728 438.907 496.489 446.39C487.437 450.836 477.145 444.936 471.044 438.209C461.935 428.161 456.133 415.847 455.178 402.18C453.482 377.923 467.537 369.229 452.142 343.946C444.829 331.931 439.241 337.29 437.872 348.863C436.147 363.414 443.104 373.02 440.552 387.586C439.583 393.13 436.946 398.731 436.432 404.375C435.349 416.361 442.348 428.86 435.591 440.304C430.816 448.399 418.072 447.701 414.052 438.993C407.937 425.767 414.38 419.382 414.123 407.253C413.967 399.999 409.875 391.99 409.12 384.821C407.595 370.554 417.345 354.464 409.904 340.796C405.242 332.231 400.695 339.656 397.645 344.687C386.169 363.599 390.93 367.875 394.451 387.244C397.801 405.657 390.645 427.306 377.36 440.447C370.831 446.903 355.863 451.991 349.306 443.197C342.748 434.404 356.162 421.819 357.132 413.026C358.372 401.795 353.468 399.8 346.74 408.394C338.572 418.826 337.788 432.594 325.771 441.487C314.837 449.582 288.536 451.449 292.571 432.081C294.424 423.216 308.436 419.681 315.25 414.408C328.393 404.218 330.917 385.063 343.504 374.174C350.703 367.96 360.111 364.454 365.941 356.245C371.23 348.82 371.444 340.269 375.492 332.644C381.294 321.712 397.003 310.795 392.27 295.717C387.595 280.838 377.303 296.387 375.335 304.368C372.171 317.152 372.955 322.981 364.216 334.34C355.849 345.214 342.221 346.996 335.835 358.583C324.445 379.248 323.903 407.596 297.075 417.843C287.61 421.463 271.402 422.118 269.363 409.249C267.696 398.802 280.411 393.557 284.93 386.232C287.339 382.327 288.266 377.552 290.304 373.59C297.118 360.435 319.228 346.682 321.038 333.684C323.247 317.765 311.202 319.746 302.022 326.915C286.127 339.314 287.938 360.806 279.926 377.623C275.265 387.429 260.782 403.491 251.402 408.921C243.633 413.425 231.003 416.047 224.56 421.719C210.775 433.848 203.89 448.257 181.624 447.986C169.065 447.829 162.037 434.019 165.971 422.974C175.651 395.823 214.068 399.144 232.457 383.495C238.23 378.578 249.848 364.34 241.865 357.485C232.785 349.704 216.748 369.158 210.433 374.445C202.593 381.03 188.494 388.783 178.416 390.721C161.053 394.056 158.716 390.45 143.762 402.921C127.212 416.731 117.105 432.18 96.4496 441.387C82.722 447.516 41.696 453.045 39.9711 431.026C38.8022 416.004 56.4072 408.807 68.6523 406.384C77.0628 404.717 85.1596 405.486 93.0712 401.239C101.738 396.593 117.005 380.217 97.1624 379.547C81.4106 379.02 66.7136 390.55 51.646 394.398C37.7759 397.947 19.173 398.617 8.2394 387.785C-0.498944 379.12 -0.684261 361.96 12.7012 357.613C21.8815 354.635 27.5407 358.568 36.0225 359.281C52.3303 360.649 64.1477 348.05 81.3963 347.01C111.289 345.214 131.232 368.046 163.562 357.813C176.306 353.78 186.199 341.637 197.105 335.138C213.74 325.233 241.138 322.397 252.927 306.62C259.342 298.026 256.078 288.348 244.531 293.18C236.933 296.372 227.297 307.503 220.526 313.147C199.784 330.449 175.565 346.81 148.252 351.157C137.062 352.939 110.861 354.72 110.576 338.045C110.434 329.993 116.264 326.9 122.893 324.349C133.94 320.102 145.102 321.313 155.879 317.693C161.125 315.94 176.235 307.988 179.813 304.154C181.98 301.831 186.542 292.054 180.868 291.527C177.376 291.199 156.463 307.603 150.761 310.425C129.992 320.701 115.095 315.128 94.3684 316.753C76.293 318.164 62.822 336.634 44.4472 340.354C33.3568 342.592 17.5765 341.566 8.32493 334.383C-0.0285279 327.898 -2.42338 315.328 8.99492 310.667C20.2279 306.092 31.076 313.774 43.0502 310.838C50.919 308.914 60.4129 300.605 47.3695 297.498C34.2549 294.377 24.3904 300.021 10.6628 292.396C0.441889 286.724 -2.89379 274.011 6.88517 266.015C23.364 252.547 49.3367 258.519 67.5546 265.06C88.923 272.728 117.775 292.025 140.94 280.396C149.364 276.177 162.778 262.666 147.041 258.348C128.823 260.357 111.189 267.056 93.1424 260.386C79.1012 255.198 74.4683 241.844 56.9204 240.376C36.4501 238.666 16.5073 242.1 2.50887 222.703C-4.40483 213.126 4.53309 202.109 14.1838 199.059C34.2834 192.731 51.3324 197.178 69.0372 207.354C76.3358 211.544 85.7441 220.451 93.8837 221.435C100.013 222.176 105.886 219.169 111.916 218.214C128.695 215.563 150.69 217.943 165.359 227.079C171.574 230.955 176.15 238.195 181.624 243.255C197.504 257.977 230.718 274.467 251.858 262.98C262.435 257.236 248.565 250.367 241.48 250.381C229.763 250.409 219.713 250.766 208.423 246.02C190.504 238.48 179.186 218.513 161.082 211.9C140.74 204.461 121.667 214.751 100.056 202.993C95.4518 200.484 90.7048 196.08 86.1147 193.857C77.5474 189.695 65.8155 189.125 56.7208 186.489C34.4687 180.047 13.9984 156.488 5.24584 135.594C1.26868 126.103 -3.40697 105.195 8.56727 99.7363C26.0725 91.7836 36.8635 123.409 45.7587 133.998C55.9083 146.07 67.8255 147.98 80.2844 155.704C94.1688 164.312 103.178 178.707 121.767 179.819C139.072 180.845 141.638 170.184 127.226 162.83C110.163 154.122 92.1303 158.526 74.2403 144.459C62.7507 135.423 61.2254 129.737 54.7679 117.794C47.2127 103.812 9.52235 84.8428 29.4224 65.4457C43.1215 52.0915 61.0401 65.0039 72.0735 75.2654C88.1104 90.1589 96.6777 111.095 117.832 120.331C127.597 124.592 137.747 126.544 147.397 131.86C159.899 138.758 177.247 156.089 184.275 168.517C193.398 184.664 194.496 196.209 211.317 207.796C224.945 217.188 239.684 217.63 253.84 224.385C267.738 231.012 278.244 241.872 294.809 243.241C298.073 243.511 314.808 243.91 315.165 239.293C311.002 232.124 300.04 233.848 292.827 232.252C278.016 228.988 267.909 212.527 252.799 210.29C232.029 207.225 209.649 204.361 201.652 180.702C196.021 164.013 204.973 145.942 223.747 157.885C232.4 163.386 236.819 175.158 245.13 179.021C252.699 182.541 259.228 182.783 266.969 188.17C275.949 194.413 280.682 205.986 291.345 210.646C300.896 214.822 309.206 211.188 319.113 212.428C334.552 214.366 344.801 227.506 362.492 225.155C375.065 223.487 375.578 215.278 362.477 213.767C350.66 212.399 343.048 214.066 331.43 208.052C322.577 203.463 316.348 191.021 307.382 188.128C299.912 185.705 294.196 188.156 286.869 187.743C259.67 186.189 246.213 152.041 224.161 141.609C203.947 132.06 180.754 135.452 158.944 127.528C142.821 121.67 116.806 103.485 125.615 83.4461C130.305 72.7856 140.07 74.4103 149.307 78.0446C167.682 85.2989 176.677 113.946 201.01 111.28C208.437 110.468 212.714 106.805 205.287 101.361C195.266 94.0069 167.924 87.565 170.604 70.7903C172.928 56.2531 196.235 57.1225 206.67 61.0561C219.428 65.8733 236.534 83.1753 243.547 94.8193C255.237 114.231 258.558 147.481 278.33 159.51C281.651 161.533 292.271 166.864 292.3 159.98C292.328 153.581 282.392 148.293 278.586 143.405C270.162 132.587 271.858 120.943 268.423 108.872C264.702 95.7742 254.11 91.356 247.254 81.0233C241.252 71.9732 234.852 52.2483 248.294 46.8325C264.787 40.2053 281.38 59.2176 287.353 72.6431C295.022 89.9166 292.742 107.988 300.069 124.806C305.913 138.217 313.468 138.744 322.563 147.723C330.375 155.433 333.768 162.26 339.541 171.111C344.202 178.237 360.139 193.9 368.707 185.976C378.158 177.253 357.545 166.664 352.47 162.502C347.709 158.597 339.028 150.189 336.12 144.972C330.218 134.44 333.711 120.915 331.715 109.014C327.909 86.268 304.744 80.4959 300.397 54.5572C297.802 39.0794 304.245 11.0455 318.7 2.60831C335.264 -7.05461 342.278 11.6584 341.323 25.2264C340.382 38.5236 327.367 53.2602 336.676 65.1322C341.636 71.4744 343.946 68.2106 347.951 62.8376C356.533 51.2934 360.068 19.8248 380.41 24.9983C383.09 25.6824 387.98 31.6683 389.277 34.1482C393.667 42.5426 391.8 55.2127 388.678 63.8923C380.353 87.0662 358.087 93.6506 360.781 123.908C361.708 134.255 374.252 154.692 385.955 146.939C390.047 144.231 390.047 141.694 389.419 137.077C387.11 120.074 371.102 98.2398 384.259 81.0945C389.818 73.8545 400.31 67.1702 408.692 73.8402C420.396 83.1611 408.592 95.4321 407.637 106.634C406.54 119.547 413.753 121.941 417.202 133.086C421.493 146.982 417.53 152.982 416.361 165.809C415.463 175.728 423.546 189.61 431.286 177.852C437.274 168.759 431.187 157.685 430.702 147.695C430.403 141.666 432.427 133.656 434.893 128.112C438.001 121.1 443.417 117.993 442.933 109.513C442.391 99.7505 435.021 89.4178 436.775 80.9948C438.756 71.5456 448.407 69.2368 456.418 72.9708C473.795 81.066 472.056 98.1828 468.121 113.775C466.382 120.63 459.169 136.407 460.552 142.35C461.721 147.381 468.92 149.946 473.467 147.965C483.431 143.633 490.003 129.366 489.803 118.92C489.29 92.2967 467.337 83.6457 460.595 60.8708C457.06 48.9133 455.99 35.9012 466.71 27.3499C475.791 20.1099 485.099 27.6207 489.803 35.9867C493.695 42.9132 500.124 65.2462 507.109 68.4529C512.64 70.9898 517.287 59.1321 517.23 54.7424C517.073 44.2244 508.178 33.7776 508.492 20.1384C508.891 2.02397 524.286 -7.3824 537.358 7.92434C551.057 23.9722 554.678 51.2792 544.714 70.0207C538.57 81.5649 525.455 88.8049 520.438 101.247C514.522 115.941 521.578 132.787 513.438 146.155C506.268 157.942 491.842 163.97 483.374 173.049C479.141 177.581 476.746 184.337 483.845 187.558C488.435 189.638 494.565 186.389 498.371 183.724C510.815 175.044 514.294 161.79 524.728 150.973C533.823 141.552 544.557 137.647 549.96 125.019C558.684 104.582 554.422 83.2181 567.764 63.536C574.735 53.2602 592.368 38.6946 604.756 48.6283C614.663 56.5667 608.063 73.4127 602.105 82.0209C597.087 89.2752 588.847 94.3347 584.557 101.96C576.702 115.898 582.304 132.089 569.446 145.956C566.153 149.519 557.529 154.564 557.615 160.008C557.743 167.519 571.128 160.208 574.122 157.842C590.572 144.816 593.01 123.723 601.15 105.58C611.627 82.2347 643.573 47.1888 672.125 61.2556C685.768 67.9684 678.54 82.8333 668.291 89.1185C662.361 92.7527 646.595 98.6531 642.689 103.157C637.97 108.573 646.338 111.466 650.871 111.409C679.139 111.01 684.727 76.8617 711.398 75.2797C724.584 74.4958 728.262 88.1066 724.784 98.7671C718.44 118.193 691.413 129.21 672.895 132.659C656.017 135.794 642.86 133.87 626.238 141.509C603.117 152.127 590.501 187.216 561.521 187.8C556.873 187.9 552.568 186.588 547.793 187.045C534.222 188.341 529.062 203.05 516.916 208.779C504.771 214.508 498.356 212.199 486.71 213.895C473.923 215.748 476.489 223.815 488.036 225.169C505.897 227.25 517.216 213.439 534.065 212.242C544.728 211.487 551.157 215.335 561.364 209.264C571.1 203.463 575.433 193.102 584.685 187.173C590.686 183.339 596.873 182.185 603.131 179.676C612.896 175.757 616.673 165.225 625.041 159.053C632.824 153.324 642.389 150.474 647.778 160.578C655.518 175.144 643.416 194.669 630.543 202.038C618.455 208.95 609.916 208.351 596.987 210.29C583.858 212.256 573.352 226.808 560.893 231.14C556.218 232.765 535.134 233.492 535.134 239.307C535.134 243.939 552.469 243.511 555.704 243.255C569.988 242.086 579.211 233.663 590.914 227.278C611.784 215.891 632.411 217.843 649.802 198.232C657.143 189.966 660.08 179.177 665.269 169.728C672.083 157.329 688.504 140.241 700.75 133.129C720.935 121.385 736.687 123.338 753.964 104.169C767.221 89.4463 784.983 59.2603 808.019 59.4741C813.949 59.5311 823.429 66.1869 825.111 71.9304C831.155 92.4962 803.03 103.371 795.004 118.549C789.33 129.281 788.219 133.784 778.44 142.35C761.063 157.557 747.093 154.094 727.791 160.906C711.683 166.593 706.095 181.073 728.019 179.876C746.28 178.878 754.904 165.552 768.347 156.773C782.631 147.438 795.873 146.113 806.807 131.077C812.295 123.537 821.319 103.428 829.287 100.221C840.805 95.5604 849.501 102.601 849.529 114.63C849.572 140.64 823.172 174.702 799.494 184.308C788.817 188.641 776.173 188.741 765.852 193.201C757.684 196.722 750.942 203.691 741.904 206.727C723.843 212.784 704.941 205.287 687.279 212.656C669.617 220.024 658.084 240.917 638.398 247.388C627.578 250.951 618.469 250.153 607.65 250.452C598.954 250.709 587.935 258.676 600.052 263.806C620.722 272.557 649.845 259.573 665.654 245.806C672.952 239.449 679.624 229.131 688.219 225.112C703.7 217.858 721.733 215.52 738.611 218.242C744.313 219.169 750.072 222.162 755.917 221.463C764.242 220.48 771.725 212.969 778.596 208.807C797.085 197.605 813.664 192.802 835.046 198.931C846.122 202.095 854.946 213.012 846.878 223.744C832.823 242.428 812.865 238.566 792.894 240.39C779.423 241.63 775.973 248.286 766.508 255.084C746.765 269.279 725.382 261.212 703.501 258.348C684.485 264.22 705.668 280.41 715.974 282.676C753.422 290.899 788.489 248.642 830.584 259.616C836.044 261.041 847.776 267.241 848.703 273.213C850.827 286.895 840.064 294.22 828.019 296.401C819.451 297.954 811.098 295.546 801.989 297.769C788.817 300.99 800.278 309.014 807.491 310.81C819.851 313.874 834.448 304.339 844.768 312.449C850.926 317.28 849.23 327.014 844.412 332.259C835.503 341.936 815.032 342.863 803.172 339.627C786.009 334.953 773.222 318.306 756.102 316.781C736.644 315.043 723.301 320.273 703.144 312.078C691.869 307.489 681.049 295.645 671.94 292.111C664.556 289.246 666.053 298.097 668.947 302.315C672.567 307.603 690.4 316.596 696.815 318.42C708.319 321.698 733.251 320.416 738.853 333.328C740.878 337.974 739.595 343.247 736.045 346.796L736.031 346.839Z" fill="#09B3AD"/>
</g>
<defs>
<clipPath id="clip0_20_466">
<rect width="850" height="448" fill="white"/>
</clipPath>
</defs>
</svg>
