<svg width="158" height="178" viewBox="0 0 158 178" fill="none" xmlns="http://www.w3.org/2000/svg">
<g clip-path="url(#clip0_47_257)">
<path d="M4.33745 52.1362C11.9077 55.3119 28.0553 20.4125 25.7648 55.0991C24.1402 79.7185 29.225 85.1859 32.8314 86.1189C37.1038 87.1993 46.4448 76.1827 37.7537 55.5083C32.7177 43.5259 29.0625 34.5719 33.0751 29.6611C36.7302 25.2087 43.8943 26.8456 45.1614 20.2488C46.4285 13.6028 33.1725 8.38101 15.8552 26.1417C6.36809 35.9142 -2.22558 49.3698 4.33745 52.1362Z" fill="#121212"/>
<path d="M44.4142 37.0273C42.3348 37.9931 38.9721 44.7045 43.8618 53.5603C50.165 65.1825 45.3402 81.5027 56.3543 83.4998C72.1933 86.3153 74.1752 67.1796 75.3936 56.5723C76.5633 46.4397 72.8594 24.0792 63.4047 25.7161C53.0891 27.5004 61.3741 40.5631 64.5744 51.2522C67.9209 62.3506 63.4535 68.5546 60.3669 68.751C49.7588 69.5204 55.737 30.7742 44.4142 37.0273Z" fill="#121212"/>
<path d="M85.0432 88.3615C79.5523 86.5773 77.7816 79.4075 81.1281 60.8283C85.4493 36.9291 78.6426 22.6551 76.3033 20.0851C73.964 17.5315 70.3089 15.6326 62.3325 17.6297C56.2406 19.1684 52.9916 19.725 51.2046 16.1401C48.8166 11.1802 56.9879 -2.12807 85.9367 0.278216C110.158 2.32438 123.057 12.7189 121.237 17.4169C120.376 19.6104 117.533 24.2265 107.12 19.2012C98.0718 14.896 87.0088 13.521 91.1188 30.9707C93.8155 42.331 96.8534 54.6735 96.6097 64.7406C96.3985 74.8241 93.3607 91.0461 85.0269 88.3288L85.0432 88.3615Z" fill="#121212"/>
<path d="M113.277 83.5C107.494 84.2694 106.73 72.4998 109.411 60.0591C112.156 47.5202 112.156 41.2181 102.653 38.468C94.3191 36.0617 94.9851 25.569 104.489 27.9262C112.01 29.825 114.642 31.4128 120.945 28.4827C126.939 25.7163 133.08 17.3843 137.044 23.1136C139.984 27.3532 133.031 32.1658 122.423 41.1853C110.288 51.6289 126.842 81.6666 113.277 83.5164V83.5Z" fill="#121212"/>
<path d="M151.015 38.6642C142.73 28.0733 129.587 45.1628 127.605 54.6243C125.429 65.0679 123.138 86.8228 138.522 86.8228C150.511 86.8228 149.894 69.9787 152.087 59.2896C154.329 48.2403 155.076 43.8369 151.015 38.6642ZM142.583 60.419C142.031 64.4623 141.869 68.7674 138.376 67.998C135.679 67.376 134.916 61.9578 136.297 56.8342C137.612 51.9725 140.163 50.0736 142.194 52.1198C143.623 53.4948 143.103 56.9324 142.6 60.4027L142.583 60.419Z" fill="#121212"/>
<path d="M9.92582 86.3645C5.05228 86.4627 0.276217 90.1458 0.0162955 95.7278C-0.389832 106.171 6.87173 109.183 7.08292 128.679C7.29411 143.264 10.5431 147.357 14.247 150.434C19.9328 155.247 25.0663 146.751 20.2902 135.489C12.7687 117.679 23.1818 120.953 27.8117 118.301C43.6019 109.134 32.8477 85.808 9.92582 86.3645ZM18.4058 112.015C16.0665 111.655 17.2849 109.2 16.4239 105.418C15.5629 101.473 16.0665 98.2978 19.5754 99.3781C26.6908 101.572 21.2974 112.424 18.4058 112.015Z" fill="#121212"/>
<path d="M70.3576 133.655C69.0905 105.975 58.8235 89.1309 50.0349 90.0476C41.2463 90.9642 41.555 102.03 42.6272 108.987C44.3979 120.707 38.7608 127.713 33.7898 139.745C27.5354 154.886 30.5408 163.595 34.001 165.739C43.6993 171.829 46.8996 150.843 46.9971 141.938C47.0458 139.581 44.8203 121.411 54.5673 121.526C65.2891 121.673 61.2766 142.659 58.8885 150.09C55.3796 160.894 47.3545 173.891 56.3543 175.168C66.0039 176.609 71.6409 161.352 70.3738 133.655H70.3576ZM52.1306 109.609C50.9122 109.658 50.0024 107.514 49.84 106.122C49.5801 104.174 49.3364 101.261 51.0584 101.261C53.3002 101.31 53.8038 103.356 53.9013 105.255C53.95 107.154 53.3489 109.56 52.1306 109.609Z" fill="#121212"/>
<path d="M122.472 92.9123C125.12 99.2636 114.041 100.851 117.436 115.895C119.564 125.307 130.075 138.468 129.831 154.33C129.62 167.998 108.55 172.696 107.64 160.272C107.331 155.82 110.58 152.693 114.95 154.183C119.369 155.672 121.806 149.681 115.665 133.705C109.573 117.745 104.586 116.042 103.53 105.664C102.003 90.7679 119.028 84.6294 122.472 92.9287V92.9123Z" fill="#121212"/>
<path d="M96.3173 98.5923C100.184 108.774 80.0722 104.272 91.3463 133.132C94.2867 140.711 100.444 151.302 101.256 160.059C102.279 171.321 97.3895 178.54 82.1028 177.967C72.1933 177.607 73.2168 162.302 82.5577 164.512C92.1586 166.82 89.7705 153.004 83.6786 137.027C77.5867 121.067 72.4045 112.506 73.4117 104.174C74.6788 93.7797 93.117 90.1949 96.3173 98.5923Z" fill="#121212"/>
<path d="M155.742 108.627C150.917 95.4169 140.65 90.0477 135.127 92.0448C126.793 95.0076 128.369 107.858 131.212 117.073C135.988 132.575 133.795 156.327 141.82 150.5C145.832 147.537 147.554 141.742 143.136 131.413C140.439 125.062 139.383 114.323 143.802 113.456C147.197 112.785 149.488 114.896 150.056 124.309C150.267 127.943 148.935 134.081 153.923 133.721C155.092 133.623 161.282 123.736 155.758 108.643L155.742 108.627ZM135.923 103.929C135.923 101.326 140.244 99.4765 140.699 101.735C142.421 110.493 135.923 106.548 135.923 103.929Z" fill="#121212"/>
</g>
<defs>
<clipPath id="clip0_47_257">
<rect width="158" height="178" fill="white"/>
</clipPath>
</defs>
</svg>
