<svg width="61" height="61" viewBox="0 0 61 61" fill="none" xmlns="http://www.w3.org/2000/svg">
<path d="M32.565 14.5654C33.3901 14.5328 34.1972 14.7428 34.9953 14.9084C39.2193 15.7954 43.4073 16.8895 47.6612 17.676C48.4444 18.3295 48.0318 18.4418 47.9063 18.9859C47.7419 19.6985 53.7086 29.8791 54.1689 31.5468C55.7832 31.6178 54.6323 33.661 54.154 34.5067C50.9046 40.249 42.5314 40.5979 39.4435 34.5629C38.9502 33.6019 37.6379 30.6893 39.7603 31.189L45.9273 19.0214C41.7393 18.5927 37.5213 18.2142 33.3153 18.6488C32.6218 19.0539 32.6248 24.3113 32.565 25.3314C32.3348 29.3025 32.2541 32.3067 32.7384 36.2986C33.6352 43.7056 33.9849 45.1574 40.7259 48.4425C41.823 48.9777 45.168 50.8761 42.7826 52.0677C41.2132 52.8513 37.9219 52.7241 36.1193 52.7833C31.2587 52.9429 24.6044 53.2711 19.8992 52.5644C17.0922 52.1416 16.5182 50.5981 19.0562 49.0871C21.4566 47.659 24.4579 47.0587 26.1499 44.5246C27.6984 42.2064 28.5085 35.7988 28.6699 32.9129C28.8762 29.2582 28.6699 24.2255 28.2125 20.5856C28.1707 20.2574 27.9674 18.8883 27.8418 18.7257C27.6296 18.4507 26.3263 18.6074 25.8898 18.5779C23.1725 18.3975 20.219 18.4773 17.4838 18.7287C16.6617 18.8055 15.8337 18.9948 15.0056 19.0244L21.1756 30.9614C21.4626 31.4285 22.2129 30.8076 22.3594 31.5705C22.754 33.6196 20.231 36.8515 18.5032 37.8509C13.9833 40.4648 6.79392 37.7622 6.03463 32.5729C5.8463 31.2807 6.46809 31.9223 6.88659 31.4078C8.21984 28.5663 9.75337 25.8252 11.1823 23.0369C11.5171 22.3834 13.0715 19.6098 13.1373 19.1811C13.1762 18.9357 12.5275 18.3384 13.209 17.7677L28.5144 14.3495C26.0094 12.0195 26.9361 6.32153 31.0763 7.06667C33.9879 7.59299 34.4423 10.7539 33.396 13.0869C33.2854 13.3294 32.4185 14.4412 32.571 14.5713L32.565 14.5654ZM14.2493 20.0622C13.9653 19.7991 13.6604 20.9079 13.4751 21.0025L7.94781 31.6444L19.6541 31.3487L14.2493 20.0652V20.0622ZM52.9792 31.6414L46.9019 20.0622L41.2729 31.3428L52.9822 31.6414H52.9792Z" fill="black"/>
<path d="M30.5 60C46.7924 60 60 46.7924 60 30.5C60 14.2076 46.7924 1 30.5 1C14.2076 1 1 14.2076 1 30.5C1 46.7924 14.2076 60 30.5 60Z" stroke="black" stroke-width="2" stroke-linecap="round" stroke-linejoin="round"/>
</svg>
