<svg width="60" height="61" viewBox="0 0 60 61" fill="none" xmlns="http://www.w3.org/2000/svg">
<path d="M37.8044 5.86673C37.9184 5.94566 37.9447 6.52741 37.933 6.71743C37.857 7.94232 37.2782 10.0238 36.9976 11.3042C36.1907 14.9993 35.1968 18.6419 34.2496 22.2902C35.0126 22.1236 38.6814 20.8812 39.155 21.2144C39.2252 21.2641 39.2953 21.6529 39.2749 21.7816C37.2197 25.1961 35.2523 28.6749 33.0189 31.952C33.8637 32.1859 35.1061 31.4404 35.9101 31.6041C36.3486 31.6947 36.258 32.1888 36.1644 32.5717C33.4281 36.9714 30.3469 41.0817 27.4323 45.3235C25.4473 48.2118 23.6027 51.1469 21.5212 53.9533C21.1733 54.424 20.691 55.8915 20.1239 54.7251C21.0155 49.1239 22.8075 43.8297 24.4037 38.4565C24.2458 38.2928 20.8693 39.7428 20.27 39.8159C20.0128 39.848 19.4836 39.924 19.4807 39.4914L25.3918 26.4677C23.8512 26.4444 21.8048 27.83 20.3899 27.9002C20.0157 27.9177 19.9046 27.716 19.9982 27.3214C20.0771 26.9939 21.5212 24.857 21.8253 24.4155C24.5118 20.4748 27.9322 16.9726 30.9959 13.3827C32.9341 11.1113 34.8226 8.79302 36.7812 6.53033C37.0063 6.27015 37.3045 5.51007 37.8103 5.86088L37.8044 5.86673Z" fill="black"/>
<path d="M21.8106 15.2503C21.6557 15.1538 21.4072 15.2503 21.2406 15.3146C18.5277 16.329 14.7215 19.9306 13.4264 22.5061C9.99437 29.3146 10.4066 38.3391 15.1454 44.4226C15.5225 44.9079 17.2063 46.4982 17.3087 46.8666C17.411 47.2349 17.2093 47.346 16.8614 47.3226C15.6102 47.2378 12.4383 43.493 11.6899 42.3792C4.65044 31.896 8.91857 17.9047 20.0391 12.4848C19.6006 11.9732 19.2264 11.3213 19.2995 10.6284C21.9013 10.5524 24.4943 10.7512 27.0815 10.9441L28.2099 11.2949C28.2245 11.6779 26.6488 12.5111 26.2951 12.7946C25.5789 13.3647 24.6492 14.1803 24.0587 14.8644C23.6933 15.2883 23.132 16.7266 22.4216 16.3553C22.0679 16.1711 21.8779 15.2941 21.8077 15.2503H21.8106Z" fill="black"/>
<path d="M36.9479 45.694C37.1028 45.7904 37.3513 45.694 37.5179 45.6297C40.2308 44.6152 44.0371 41.0136 45.3321 38.4381C48.7642 31.6296 48.352 22.6052 43.6132 16.5216C43.2361 16.0363 41.5522 14.446 41.4499 14.0777C41.3476 13.7093 41.5493 13.5982 41.8972 13.6216C43.1484 13.7064 46.3202 17.4512 47.0686 18.5651C54.1081 29.0483 49.84 43.0395 38.7195 48.4595C39.158 48.9711 39.5321 49.623 39.4591 50.3158C36.8573 50.3918 34.2642 50.193 31.677 50.0001L30.5486 49.6493C30.534 49.2663 32.1097 48.4332 32.4634 48.1496C33.1797 47.5795 34.1093 46.7639 34.6998 46.0798C35.0652 45.656 35.6265 44.2177 36.3369 44.5889C36.6906 44.7731 36.8806 45.6501 36.9508 45.694H36.9479Z" fill="black"/>
<path d="M30 60C46.0163 60 59 46.7924 59 30.5C59 14.2076 46.0163 1 30 1C13.9837 1 1 14.2076 1 30.5C1 46.7924 13.9837 60 30 60Z" stroke="black" stroke-width="2" stroke-linecap="round" stroke-linejoin="round"/>
</svg>
