<svg width="60" height="61" viewBox="0 0 60 61" fill="none" xmlns="http://www.w3.org/2000/svg">
<path d="M28.6186 52.5058C28.2034 52.7864 25.549 51.3014 25.0404 50.9856C14.4197 44.3934 1.69721 23.3305 14.3086 13.2507C18.2844 10.073 26.2974 10.3712 28.8115 15.1041C28.8144 25.8125 28.6186 36.55 28.8115 47.2379C28.8232 47.9629 28.9051 52.3128 28.6186 52.5058ZM12.961 24.5554C13.4199 21.3222 14.8349 18.0801 17.5273 16.1156C17.9863 15.7824 20.2109 14.6481 20.2986 14.5165C20.5881 14.081 19.9858 13.9933 19.6409 14.0196C15.2821 14.3441 12.3851 19.4746 12.6277 23.4708C12.6394 23.6872 12.7125 24.4882 12.961 24.5612V24.5554Z" fill="black"/>
<path d="M44.9749 14.6596C45.0801 14.7327 45.849 14.838 46.191 14.9871C50.1639 16.744 51.798 21.17 50.2369 25.137C50.0937 25.4995 49.547 26.166 49.5266 26.3736C49.5149 26.4993 50.0966 27.2301 50.2369 27.5517C51.3449 30.1097 50.3013 34.3983 47.5591 35.6027C48.8045 38.8652 46.3196 42.7883 42.8233 43.1421C43.1478 45.3404 41.2622 47.343 39.2304 47.8779C38.8387 47.9802 37.5027 47.9919 37.4267 48.0387C37.2601 48.1381 37.035 48.8105 36.8508 49.0677C35.8189 50.5031 33.9157 51.842 32.2114 52.3712C31.5712 52.5699 31.0245 52.757 30.9164 51.9005C30.8228 44.288 30.969 36.6814 30.9164 29.0689C30.8901 25.3153 30.3346 20.7169 30.7468 17.0217C31.3315 11.7684 38.2306 9.915 42.5543 11.9818C44.247 12.7887 44.3902 14.2504 44.9749 14.6596ZM39.0638 43.6186C38.2248 44.1565 38.1751 41.6395 37.836 41.2156C37.2776 40.5198 35.9387 40.3269 35.1085 40.6017C32.0711 41.6131 31.9805 45.9017 32.2202 48.5152C32.2757 49.1058 32.4278 50.2546 33.1235 50.3686C34.8629 50.6493 36.9941 47.1412 35.395 45.8696C35.0676 45.7994 34.3659 47.4833 33.5942 46.8489C32.6938 46.1093 34.2724 45.2498 34.5969 44.5921C34.9214 43.9343 35.0354 41.961 36.0293 42.0487C36.959 42.1306 36.4532 42.9667 36.4971 43.4899C36.6696 45.472 38.2716 47.381 40.1308 45.7088C41.3528 44.6125 41.04 43.8992 41.3908 42.6129C41.6802 41.5518 42.987 41.5138 43.7909 40.9612C44.5948 40.4087 45.887 38.8155 46.0448 37.88C46.2027 36.9445 45.77 36.3043 46.0448 35.4682C46.305 34.6818 47.5065 34.1001 48.0766 33.2932C48.9477 32.0625 49.2635 30.3026 48.9448 28.8292C48.7373 27.8616 47.5708 27.1863 47.5387 26.3444C47.4977 25.365 48.9097 23.6958 48.86 22.1786C48.8279 21.2343 47.448 16.7615 46.1705 18.7202C45.7116 19.4247 45.694 21.2021 45.4222 22.161C45.1766 23.0176 44.6182 23.8273 44.4954 24.7804C44.3259 26.0696 44.7264 26.7244 44.1739 28.1627C44.0014 28.6129 42.987 30.5306 42.528 29.525C42.2211 28.8555 42.3965 27.7213 41.9843 26.8472C41.6159 26.0637 40.4641 25.1662 39.5988 25.0201C38.8972 24.9031 35.8919 25.3036 36.3071 24.1138C36.5702 23.3567 40.3589 23.649 41.0985 23.5262C42.9168 23.228 43.9868 20.3631 44.1212 18.7904C44.8433 10.3769 33.144 10.6692 31.7992 16.9369C30.9748 20.7783 35.9563 20.1 37.6021 18.1531C37.8769 17.8286 38.2365 16.7206 38.5084 16.6358C39.0053 16.4809 39.1983 17.1884 39.2217 17.5275C39.4877 21.5617 31.0888 21.0355 32.4541 26.7536C33.182 29.7998 36.69 29.2151 39.0667 30.5219C40.619 31.3755 40.964 32.9395 42.949 32.4221C43.9166 32.1706 45.0567 30.7967 46.0887 31.507C46.267 32.3022 44.9895 32.6969 44.5218 33.1704C43.9605 33.7376 43.2705 35.0589 43.1536 35.8424C43.0484 36.5586 43.3875 37.4415 42.7356 37.9852C42.2824 38.07 41.8527 36.4212 41.6481 36.012C40.4524 33.5943 39.172 31.0978 36.044 31.1212C32.9335 31.1445 31.7729 33.302 32.0477 36.1494C32.3634 39.3972 35.1173 38.9324 35.1436 35.9944C36.0907 35.6261 35.7165 36.8919 35.8101 37.4239C36.1112 39.1312 37.5524 40.2012 39.3006 40.0871C39.6426 40.0638 41.5078 39.4762 41.5019 40.0082C41.0079 40.5783 40.2829 40.5958 39.8034 41.2243C39.324 41.8529 39.1661 43.5572 39.058 43.6244L39.0638 43.6186Z" fill="black"/>
<path d="M30 60C46.0163 60 59 46.7924 59 30.5C59 14.2076 46.0163 1 30 1C13.9837 1 1 14.2076 1 30.5C1 46.7924 13.9837 60 30 60Z" stroke="black" stroke-width="2" stroke-linecap="round" stroke-linejoin="round"/>
</svg>
